<?xml version='1.0' encoding='utf-8'?>
<svg xmlns="http://www.w3.org/2000/svg" width="1000mm" height="1000mm" version="1.1" style="shape-rendering:geometricPrecision; text-rendering:geometricPrecision; image-rendering:optimizeQuality; fill-rule:evenodd; clip-rule:evenodd" viewBox="0 0 100000 100000"> <defs> <style type="text/css">  .fil6 {fill:none} .fil1 {fill:#242424} .fil0 {fill:#525252} .fil4 {fill:#8F0303} .fil2 {fill:#D6844C} .fil3 {fill:#EFB830} .fil5 {fill:white} .fil7 {fill:#730000;fill-rule:nonzero}  </style> <clipPath id="id0"> <path d="M54198.2 22322.09c2367.78,0 4287.26,1919.47 4287.26,4287.26 0,2367.79 -1919.48,4287.26 -4287.26,4287.26 -1990.74,0 -3664.47,-1356.93 -4147.02,-3196.3l0 -2181.92c482.55,-1839.37 2156.28,-3196.3 4147.02,-3196.3zm-4250.44 4850.32c-24.21,-184.31 -36.82,-372.18 -36.82,-563.06 0,-190.88 12.61,-378.75 36.82,-563.06l0 1126.12z"/> </clipPath> <clipPath id="id1"> <path d="M61860.54 35092.65c2367.78,0 4287.26,1919.48 4287.26,4287.26 0,480.79 -79.18,943.06 -225.11,1374.52l-4902.15 2830.26c-1965.55,-390.49 -3447.27,-2124.52 -3447.27,-4204.78 0,-2367.78 1919.48,-4287.26 4287.27,-4287.26zm4007.85 5812c-614.73,1614.94 -2177.17,2762.53 -4007.85,2762.53 -232.46,0 -460.47,-18.67 -682.84,-54.36l4690.69 -2708.17z"/> </clipPath> <clipPath id="id2"> <path d="M48541.08 47584.11c-269.95,53.27 -548.95,81.45 -834.57,81.45 -2367.78,0 -4287.26,-1919.47 -4287.26,-4287.26 0,-1082.17 401.15,-2070.64 1062.63,-2825.04l4059.2 7030.85z"/> </clipPath> <clipPath id="id3"> <path d="M50051.18 39788.77c1169.68,765.62 1942.6,2087.18 1942.6,3589.53 0,1502.35 -772.77,2824.16 -1942.6,3589.69l0 -7179.22z"/> </clipPath> <clipPath id="id4"> <path d="M40135.4 11999.21c2367.79,0 4287.26,1919.48 4287.26,4287.26 0,2367.79 -1919.47,4287.26 -4287.26,4287.26 -2367.79,0 -4287.26,-1919.47 -4287.26,-4287.26 0,-2367.78 1919.47,-4287.26 4287.26,-4287.26z"/> </clipPath> <clipPath id="id5"> <path d="M44513.89 28144.85c821.58,0 1589.07,231.26 2241.24,632l0 7310.27c-395.67,243.1 -833.74,424 -1300.67,528.51l-4092.81 -7089.03c783.36,-849.51 1905.56,-1381.75 3152.24,-1381.75z"/> </clipPath> <clipPath id="id6"> <path d="M35118.4 31155.03c2367.78,0 4287.26,1919.47 4287.26,4287.26 0,2367.79 -1919.48,4287.26 -4287.26,4287.26 -2367.79,0 -4287.26,-1919.47 -4287.26,-4287.26 0,-2367.79 1919.47,-4287.26 4287.26,-4287.26z"/> </clipPath> <clipPath id="id7"> <path d="M33808.01 43527.39c2367.79,0 4287.26,1919.48 4287.26,4287.26 0,779.75 -208.2,1510.78 -572.01,2140.77l-7430.5 0c-363.81,-629.99 -572.01,-1361.02 -572.01,-2140.77 0,-2367.78 1919.48,-4287.26 4287.26,-4287.26zm3653.4 6531.45c-754.56,1225.73 -2108.44,2043.08 -3653.4,2043.08 -1544.96,0 -2898.84,-817.35 -3653.4,-2043.08l7306.8 0z"/> </clipPath> <clipPath id="id8"> <path d="M48618.65 51496.71c151.31,0 300.72,7.91 447.95,23.22l-3916.58 6783.76c-514.76,-707.29 -818.63,-1578.01 -818.63,-2519.72 0,-1416.61 687.28,-2672.54 1746.33,-3453.17l826.81 -477.37c524.95,-229.35 1104.62,-356.72 1714.12,-356.72zm559.29 36.3c264.98,34.49 522.36,93.29 769.82,173.91l0 8153.99c-418.48,136.42 -865.13,210.32 -1329.11,210.32 -1385.84,0 -2617.83,-657.75 -3401.55,-1677.81l3960.84 -6860.41zm873.24 209.18c491.65,174.28 942.03,435.75 1332.68,765.74l1455.7 2521.37c43.55,244.97 66.35,497.18 66.35,754.67 0,1865.38 -1191.44,3452.18 -2854.73,4041.72l0 -8083.5zm1584.79 996.43c537,532.04 934.06,1205.05 1130.99,1958.99l-1130.99 -1958.99z"/> </clipPath> <clipPath id="id9"> <path d="M62869.38 53860.15c2367.78,0 4287.26,1919.47 4287.26,4287.26 0,543.26 -101.31,1062.83 -285.62,1541.08l-7336.18 -4235.54c785.96,-971.46 1987.59,-1592.8 3334.54,-1592.8zm3963.06 5924.95c-643.37,1555.25 -2175.3,2649.57 -3963.06,2649.57 -2367.79,0 -4287.27,-1919.47 -4287.27,-4287.26 0,-983.45 331.39,-1889.43 888.3,-2612.81l7362.03 4250.5z"/> </clipPath> <clipPath id="id10"> <path d="M50078.18 66000.42c2367.79,0 4287.26,1919.47 4287.26,4287.26 0,2367.79 -1919.47,4287.26 -4287.26,4287.26l-27 -0.36 0 -8573.8 27 -0.36zm-130.42 8572.35c-2307.39,-68.93 -4156.84,-1960.95 -4156.84,-4285.09 0,-2324.14 1849.45,-4216.15 4156.84,-4285.09l0 8570.18z"/> </clipPath> <clipPath id="id11"> <path d="M31834.49 55601.52c1755.6,0 3264.52,1055.38 3927.49,2566.16l-7381.06 4261.46c-523.87,-711.02 -833.69,-1589.44 -833.69,-2540.36 0,-2367.78 1919.48,-4287.26 4287.26,-4287.26zm3968.04 2661.68c205.61,501.37 319.23,1050.16 319.23,1625.58 0,2367.79 -1919.48,4287.27 -4287.27,4287.27 -1379.63,0 -2606.8,-651.81 -3391.05,-1664.12l7359.09 -4248.73z"/> </clipPath> <clipPath id="id12"> <path d="M71605.66 43378.3c2367.79,0 4287.27,1919.48 4287.27,4287.26 0,842.12 -243.01,1627.4 -662.36,2289.86l-7249.81 0c-419.35,-662.46 -662.36,-1447.74 -662.36,-2289.86 0,-2367.78 1919.48,-4287.26 4287.26,-4287.26zm3557.53 6680.54c-770.13,1142.53 -2076.07,1893.99 -3557.53,1893.99 -1481.45,0 -2787.39,-751.46 -3557.52,-1893.99l7115.05 0z"/> </clipPath> </defs> <g id="Camada_x0020_1"> <metadata id="CorelCorpID_0Corel-Layer"/> <g id="_141299360928"> <circle class="fil0" cx="49999.47" cy="50007.13" r="46692.7"/> <circle class="fil1" cx="49999.47" cy="50007.13" r="34209.1"/> <path class="fil2" d="M22477.07 34057.64c2783.31,-4791.83 6779.68,-8791.98 11569.45,-11578.86l1757.4 3043.85c-1662.61,806.64 -3410.5,929.41 -4528.25,1322.12 -1125.04,395.25 -1611.52,1064.23 -1763.56,2037.23 -152.04,972.95 30.41,2250.04 -425.66,2949.37 -456.12,699.33 -1550.7,820.96 -2462.88,1094.63 -912.19,273.62 -1641.98,699.33 -2067.64,1368.26 -143.15,224.9 -251.9,477.42 -333.2,771.26l-1745.66 -1007.86z"/> <path class="fil2" d="M18186.76 49955.42c13.7,-5756.47 1554.94,-11153.36 4238.85,-15808.62l1770.03 1021.92c-139.53,564.15 -187,1276.83 -187,2226.92 0,1520.29 121.58,3648.75 -577.75,5199.45 -699.34,1550.7 -2219.63,2523.7 -2888.55,3527.11 -668.93,1003.41 -486.53,2037.18 30.41,3253.45 80.41,189.22 169,382.84 262.13,579.77l-2648.12 0z"/> <path class="fil2" d="M22402.45 65880.8c-2677.77,-4660.53 -4211.09,-10062.29 -4215.69,-15821.96l2697.3 0c497.44,1040.18 1106.95,2165.12 1330.61,3208.77 273.62,1277.08 -30.41,2432.48 273.67,4226.44 304.03,1793.97 1216.22,4226.45 3162.22,5807.56 170.25,138.34 348.56,270.1 532.76,396.34l-3780.87 2182.85z"/> <path class="fil2" d="M34024.23 77574.11c-4792.51,-2793.96 -8790.12,-6802.38 -11569.86,-11604.36l3823.74 -2207.68c1909.86,1276.36 4416.6,1987.43 5453.68,3188.24 1155.4,1337.89 486.48,3283.85 851.37,4682.51 364.85,1398.71 1763.56,2250.08 3101.41,2189.27 183.32,-8.38 365.56,-33.87 546.3,-69.97l-2206.64 3821.99z"/> <path class="fil2" d="M49947.76 81890.02c-5767.74,-17.06 -11174.1,-1567.56 -15834.43,-4264.35l2253.14 -3902.56c1088.38,-248.08 2120.64,-825.36 3027.66,-296.27 1094.58,638.51 2006.77,2888.6 4013.59,4196.04 1823.7,1188.23 4551.37,1597.81 6540.04,1457.3l0 2809.84z"/> <path class="fil2" d="M65908.57 77665.44c-4669.33,2686.55 -10083.91,4223.65 -15857.39,4224.89l0 -2818.01c162.75,-13.24 320.27,-30.15 471.53,-50.78 2006.83,-273.62 2918.96,-1185.81 4074.36,-2310.85 1155.45,-1124.99 2554.16,-2462.89 4317.72,-2706.15 1616.79,-222.94 3540.25,473.91 5208.09,568.02l1785.69 3092.88z"/> <path class="fil2" d="M77611.08 66008.12c-2791.95,4806.79 -6804.35,8816.97 -11613.93,11604.93l-1751.97 -3034.59c109.64,4.24 218.03,5.69 325.13,3.83 1763.56,-30.41 3162.27,-942.6 3922.42,-2098.05 760.14,-1155.4 881.72,-2554.11 1581.06,-3892.01 699.38,-1337.85 1976.41,-2614.88 3283.85,-3435.84 483.99,-303.92 972.17,-545.32 1438.27,-773.59l2815.17 1625.32z"/> <path class="fil2" d="M81901.65 50058.84c-4.65,5775.76 -1547.13,11191.06 -4239.01,15860.18l-2755.28 -1590.78c749.75,-367.17 1436.05,-710.24 1947.04,-1239.49 851.37,-881.72 1216.21,-2280.44 1277.03,-3587.93 60.81,-1307.44 -182.4,-2523.65 -182.4,-4104.81 0,-1581.11 243.21,-3527.07 729.69,-5229.81l31.13 -107.36 3191.8 0z"/> <path class="fil2" d="M77640.87 34107.81c2697.1,4664.1 4246.15,10075.47 4259.9,15847.61l-3160.25 0c484.45,-1612.56 1163.31,-2999.48 1367.27,-4106.89 212.85,-1155.45 -91.17,-2006.82 -820.96,-2645.33 -729.74,-638.52 -1885.14,-1064.23 -2371.67,-2219.63 -486.48,-1155.45 -304.03,-3040.59 -760.15,-4226.45 -199.92,-519.78 -522.47,-905.2 -913.99,-1263.79l2399.85 -1385.52z"/> <path class="fil2" d="M65974.71 22440.15c4806.06,2781.35 8818.62,6781.65 11613.61,11579.12l-2427.67 1401.61c-486.16,-431.45 -1068.52,-834.1 -1650.92,-1400.32 -1094.64,-1064.22 -2189.22,-2706.15 -2858.19,-4104.81 -668.93,-1398.71 -912.19,-2554.11 -2462.89,-3131.81 -1075.61,-400.74 -2780.16,-523.56 -4251.38,-814.86l2037.44 -3528.93z"/> <path class="fil2" d="M50051.18 18175.18c5764.53,1.24 11170.32,1534.51 15834.32,4213.52l-2054.7 3558.92c-609.25,-125.15 -1174.33,-281.49 -1632.16,-501.58 -1581.11,-760.15 -1885.13,-2280.44 -2310.85,-3253.44 -425.66,-973.01 -973,-1398.67 -1915.59,-1550.71 -942.6,-152.04 -2280.44,-30.4 -3922.42,425.71 -1287.69,357.66 -2762.26,920.98 -3998.6,1235.46l0 -4127.88z"/> <path class="fil3" d="M24222.73 35065.5c81.3,-293.84 190.05,-546.36 333.2,-771.26 425.66,-668.93 1155.45,-1094.64 2067.64,-1368.26 912.18,-273.67 2006.76,-395.3 2462.88,-1094.63 456.07,-699.33 273.62,-1976.42 425.66,-2949.37 152.04,-973 638.52,-1641.98 1763.56,-2037.23 1117.75,-392.71 2865.64,-515.48 4528.25,-1322.12l14054.94 24343.89 -25636.13 -14801.02z"/> <path class="fil3" d="M20834.88 49955.42c-93.13,-196.93 -181.72,-390.55 -262.13,-579.77 -516.94,-1216.27 -699.34,-2250.04 -30.41,-3253.45 668.92,-1003.41 2189.21,-1976.41 2888.55,-3527.11 699.33,-1550.7 577.75,-3679.16 577.75,-5199.45 0,-950.09 47.47,-1662.77 187,-2226.92l25611.3 14786.7 -28972.06 0z"/> <path class="fil3" d="M26183.32 63697.95c-184.2,-126.24 -362.51,-258 -532.76,-396.34 -1946,-1581.11 -2858.19,-4013.59 -3162.22,-5807.56 -304.08,-1793.96 -0.05,-2949.36 -273.67,-4226.44 -223.66,-1043.65 -833.17,-2168.59 -1330.61,-3208.77l28922.88 0 -23623.62 13639.11z"/> <path class="fil3" d="M36230.87 73752.12c-180.74,36.1 -362.98,61.59 -546.3,69.97 -1337.85,60.81 -2736.56,-790.56 -3101.41,-2189.27 -364.89,-1398.66 304.03,-3344.62 -851.37,-4682.51 -1037.08,-1200.81 -3543.82,-1911.88 -5453.68,-3188.24l23580.75 -13614.33 -13627.99 23604.38z"/> <path class="fil3" d="M49947.76 79080.18c-1988.67,140.51 -4716.34,-269.07 -6540.04,-1457.3 -2006.82,-1307.44 -2919.01,-3557.53 -4013.59,-4196.04 -907.02,-529.09 -1939.28,48.19 -3027.66,296.27l13581.29 -23523.45 0 28880.52z"/> <path class="fil3" d="M64122.88 74572.56c-1667.84,-94.11 -3591.3,-790.96 -5208.09,-568.02 -1763.56,243.26 -3162.27,1581.16 -4317.72,2706.15 -1155.4,1125.04 -2067.53,2037.23 -4074.36,2310.85 -151.26,20.63 -308.78,37.54 -471.53,50.78l0 -28872.66 14071.7 24372.9z"/> <path class="fil3" d="M74795.91 64382.8c-466.1,228.27 -954.28,469.67 -1438.27,773.59 -1307.44,820.96 -2584.47,2097.99 -3283.85,3435.84 -699.34,1337.9 -820.92,2736.61 -1581.06,3892.01 -760.15,1155.45 -2158.86,2067.64 -3922.42,2098.05 -107.1,1.86 -215.49,0.41 -325.13,-3.83l-14105.1 -24430.72 24655.83 14235.06z"/> <path class="fil3" d="M78709.85 50058.84l-31.13 107.36c-486.48,1702.74 -729.69,3648.7 -729.69,5229.81 0,1581.16 243.21,2797.37 182.4,4104.81 -60.82,1307.49 -425.66,2706.21 -1277.03,3587.93 -510.99,529.25 -1197.29,872.32 -1947.04,1239.49l-24715.31 -14269.4 28517.8 0z"/> <path class="fil3" d="M75241.02 35493.33c391.52,358.59 714.07,744.01 913.99,1263.79 456.12,1185.86 273.67,3071 760.15,4226.45 486.53,1155.4 1641.93,1581.11 2371.67,2219.63 729.79,638.51 1033.81,1489.88 820.96,2645.33 -203.96,1107.41 -882.82,2494.33 -1367.27,4106.89l-28548.52 0 25049.02 -14462.09z"/> <path class="fil3" d="M63937.27 25969.08c1471.22,291.3 3175.77,414.12 4251.38,814.86 1550.7,577.7 1793.96,1733.1 2462.89,3131.81 668.97,1398.66 1763.55,3040.59 2858.19,4104.81 582.4,566.22 1164.76,968.87 1650.92,1400.32l-25020.57 14445.64 13797.19 -23897.44z"/> <path class="fil3" d="M54049.78 21067.6c1641.98,-456.11 2979.82,-577.75 3922.42,-425.71 942.59,152.04 1489.93,577.7 1915.59,1550.71 425.72,973 729.74,2493.29 2310.85,3253.44 457.83,220.09 1022.91,376.43 1632.16,501.58l-13779.62 23866.98 0 -27511.54c1236.34,-314.48 2710.91,-877.8 3998.6,-1235.46z"/> <path class="fil4" d="M54198.2 22322.09c2367.78,0 4287.26,1919.47 4287.26,4287.26 0,2367.79 -1919.48,4287.26 -4287.26,4287.26 -1990.74,0 -3664.47,-1356.93 -4147.02,-3196.3l0 -2181.92c482.55,-1839.37 2156.28,-3196.3 4147.02,-3196.3zm-4250.44 4850.32c-24.21,-184.31 -36.82,-372.18 -36.82,-563.06 0,-190.88 12.61,-378.75 36.82,-563.06l0 1126.12z"/> <g style="clip-path:url(#id0)"> <g> <g> <path id="1" class="fil5" d="M51598.58 26700.47c1184.15,-1643.68 1311.88,437.19 592.9,680.2 -379.69,128.35 -456.07,-800.75 -456.07,-953.87l-136.83 273.67zm4834.55 501.73c0,-779.18 -829.13,-611.62 -1284.84,87.24 366.34,928.17 1299.11,457.16 1558.51,-224.07l-273.67 136.83zm-2371.66 -4150.42c-74.42,-1079.23 -3236.8,462.22 -182.45,592.9 692.97,29.63 167.86,-804.57 182.45,-592.9zm-692.2 7764.47c-315.15,-61.75 -617.93,-157.99 -904.22,-284.69 31.23,-1082.63 1294.82,-169.16 904.22,284.69zm-904.22 -284.69c-37.13,-16.44 -74.01,-33.25 -110.57,-50.73 46.24,-118.01 116.36,-153.8 110.57,50.73zm1915.7 -2417.22c451.88,-903.24 -2173.7,-302.27 45.61,745.41 298.18,140.76 102.39,1509.43 790.97,820.91 144.49,-144.44 -725.76,-1787.82 -836.58,-1566.32zm1801.57 -4355.63c-1324.09,-186.85 -118.43,587.57 280.8,1083.51 282.57,351.09 -466.61,1456.28 487.36,642.45 463.88,-395.67 -406.78,-808.45 -380.51,-1475.15 9.67,-245.85 -338.89,-243.93 -387.65,-250.81zm-2440.14 912.18c-468.58,-1269.79 -1765.78,535.87 -596.83,756.48 738.74,139.37 755.34,-326.99 596.83,-756.48zm-2234.83 -410.5c-401.66,-618.19 -2015.4,1193.25 -319.23,984.53 753.43,-92.72 272.74,-1056.05 319.23,-984.53z"/> </g> </g> </g> <path class="fil6" d="M54198.2 22322.09c2367.78,0 4287.26,1919.47 4287.26,4287.26 0,2367.79 -1919.48,4287.26 -4287.26,4287.26 -1990.74,0 -3664.47,-1356.93 -4147.02,-3196.3l0 -2181.92c482.55,-1839.37 2156.28,-3196.3 4147.02,-3196.3zm-4250.44 4850.32c-24.21,-184.31 -36.82,-372.18 -36.82,-563.06 0,-190.88 12.61,-378.75 36.82,-563.06l0 1126.12z"/> <path class="fil7" d="M54198.2 22270.37c1198.06,0 2282.97,485.7 3068.1,1270.88 785.17,785.12 1270.87,1870.04 1270.87,3068.1 0,1198.06 -485.7,2282.98 -1270.87,3068.1 -785.13,785.18 -1870.04,1270.88 -3068.1,1270.88 -1198.07,0 -2282.98,-485.7 -3068.1,-1270.88 -493.2,-493.15 -868.23,-1104.62 -1078.92,-1788.07l0 -414.64c170.76,822.41 579.93,1557.52 1152.04,2129.59 766.41,766.45 1825.36,1240.57 2994.98,1240.57 1169.62,0 2228.57,-474.12 2994.97,-1240.57 766.46,-766.41 1240.58,-1825.36 1240.58,-2994.98 0,-1169.62 -474.12,-2228.57 -1240.58,-2994.98 -766.4,-766.45 -1825.35,-1240.57 -2994.97,-1240.57 -1169.62,0 -2228.57,474.12 -2994.98,1240.57 -572.11,572.07 -981.28,1307.18 -1152.04,2129.59l0 -414.64c210.69,-683.45 585.72,-1294.92 1078.92,-1788.07 785.12,-785.18 1870.03,-1270.88 3068.1,-1270.88zm-4250.44 5215.12c-58.08,-282.98 -88.54,-576.04 -88.54,-876.14 0,-300.1 30.46,-593.16 88.54,-876.14l0 1752.28z"/> <path class="fil4" d="M61860.54 35092.65c2367.78,0 4287.26,1919.48 4287.26,4287.26 0,480.79 -79.18,943.06 -225.11,1374.52l-4902.15 2830.26c-1965.55,-390.49 -3447.27,-2124.52 -3447.27,-4204.78 0,-2367.78 1919.48,-4287.26 4287.27,-4287.26zm4007.85 5812c-614.73,1614.94 -2177.17,2762.53 -4007.85,2762.53 -232.46,0 -460.47,-18.67 -682.84,-54.36l4690.69 -2708.17z"/> <g style="clip-path:url(#id1)"> <g id="_141299368320"> <g> <path id="1" class="fil5" d="M59260.91 39471.03c1184.16,-1643.68 1311.89,437.2 592.91,680.2 -379.69,128.36 -456.07,-800.74 -456.07,-953.87l-136.84 273.67zm4834.56 501.74c0,-779.18 -829.14,-611.63 -1284.84,87.24 366.34,928.16 1299.11,457.15 1558.51,-224.08l-273.67 136.84zm-2371.67 -4150.43c-74.41,-1079.23 -3236.79,462.22 -182.44,592.9 692.97,29.63 167.86,-804.57 182.44,-592.9zm-692.19 7764.47c-315.15,-61.74 -617.93,-157.98 -904.22,-284.68 31.23,-1082.64 1294.82,-169.16 904.22,284.68zm-904.22 -284.68c-37.13,-16.45 -74.01,-33.26 -110.57,-50.74 46.23,-118.01 116.36,-153.79 110.57,50.74zm1915.7 -2417.23c451.88,-903.24 -2173.71,-302.27 45.61,745.41 298.18,140.76 102.39,1509.43 790.97,820.91 144.49,-144.44 -725.76,-1787.81 -836.58,-1566.32zm1801.56 -4355.63c-1324.09,-186.84 -118.42,587.58 280.81,1083.52 282.57,351.09 -466.61,1456.27 487.36,642.44 463.87,-395.66 -406.79,-808.45 -380.52,-1475.14 9.67,-245.85 -338.88,-243.94 -387.65,-250.82zm-2440.13 912.19c-468.58,-1269.79 -1765.78,535.86 -596.83,756.47 738.73,139.37 755.33,-326.99 596.83,-756.47zm-2234.83 -410.51c-401.66,-618.19 -2015.41,1193.25 -319.23,984.54 753.42,-92.73 272.74,-1056.06 319.23,-984.54z"/> </g> </g> </g> <path class="fil6" d="M61860.54 35092.65c2367.78,0 4287.26,1919.48 4287.26,4287.26 0,480.79 -79.18,943.06 -225.11,1374.52l-4902.15 2830.26c-1965.55,-390.49 -3447.27,-2124.52 -3447.27,-4204.78 0,-2367.78 1919.48,-4287.26 4287.27,-4287.26zm4007.85 5812c-614.73,1614.94 -2177.17,2762.53 -4007.85,2762.53 -232.46,0 -460.47,-18.67 -682.84,-54.36l4690.69 -2708.17z"/> <path class="fil7" d="M61860.54 35040.94c1198.06,0 2282.97,485.7 3068.1,1270.87 785.17,785.13 1270.87,1870.04 1270.87,3068.1 0,466 -73.54,914.88 -209.54,1335.68l-135.7 78.34c156.54,-442.2 241.81,-918.18 241.81,-1414.02 0,-1169.62 -474.11,-2228.57 -1240.57,-2994.97 -766.4,-766.46 -1825.35,-1240.57 -2994.97,-1240.57 -1169.62,0 -2228.58,474.11 -2994.98,1240.57 -766.46,766.4 -1240.57,1825.35 -1240.57,2994.97 0,1169.62 474.11,2228.58 1240.57,2994.98 593.73,593.73 1363.03,1011.94 2223.3,1170.34l-135.91 78.45c-833.94,-177.48 -1579.35,-594.5 -2160.51,-1175.67 -785.18,-785.12 -1270.88,-1870.03 -1270.88,-3068.1 0,-1198.06 485.7,-2282.97 1270.88,-3068.1 785.12,-785.17 1870.03,-1270.87 3068.1,-1270.87zm4078.49 5822.91c-218.86,601.34 -566.79,1140.56 -1010.39,1584.16 -785.13,785.18 -1870.04,1270.88 -3068.1,1270.88 -256.97,0 -508.72,-22.39 -753.48,-65.26l142.11 -82.07c199.62,28.9 403.73,43.9 611.37,43.9 1169.62,0 2228.57,-474.11 2994.97,-1240.57 403.99,-403.94 726.74,-889.28 941.67,-1429.12l141.85 -81.92z"/> <path class="fil4" d="M48541.08 47584.11c-269.95,53.27 -548.95,81.45 -834.57,81.45 -2367.78,0 -4287.26,-1919.47 -4287.26,-4287.26 0,-1082.17 401.15,-2070.64 1062.63,-2825.04l4059.2 7030.85z"/> <g style="clip-path:url(#id2)"> <g> <g> <path id="1" class="fil5" d="M45106.89 43469.42c1184.15,-1643.68 1311.89,437.19 592.91,680.2 -379.69,128.35 -456.07,-800.75 -456.07,-953.87l-136.84 273.67zm4834.56 501.73c0,-779.18 -829.14,-611.62 -1284.84,87.24 366.34,928.17 1299.11,457.16 1558.51,-224.07l-273.67 136.83zm-2371.67 -4150.42c-74.42,-1079.23 -3236.79,462.22 -182.45,592.9 692.97,29.63 167.87,-804.57 182.45,-592.9zm-692.19 7764.47c-315.15,-61.75 -617.94,-157.99 -904.23,-284.69 31.24,-1082.63 1294.82,-169.16 904.23,284.69zm-904.23 -284.69c-37.13,-16.44 -74,-33.25 -110.56,-50.73 46.23,-118.01 116.36,-153.8 110.56,50.73zm1915.71 -2417.22c451.87,-903.24 -2173.71,-302.27 45.61,745.41 298.18,140.76 102.39,1509.43 790.97,820.91 144.49,-144.44 -725.76,-1787.81 -836.58,-1566.32zm1801.56 -4355.63c-1324.09,-186.85 -118.42,587.58 280.81,1083.51 282.57,351.09 -466.62,1456.28 487.36,642.45 463.87,-395.67 -406.79,-808.45 -380.52,-1475.15 9.67,-245.85 -338.88,-243.93 -387.65,-250.81zm-2440.13 912.19c-468.58,-1269.8 -1765.78,535.86 -596.84,756.47 738.74,139.37 755.34,-326.99 596.84,-756.47zm-2234.83 -410.51c-401.67,-618.19 -2015.41,1193.25 -319.23,984.53 753.42,-92.72 272.74,-1056.05 319.23,-984.53z"/> </g> </g> </g> <path class="fil6" d="M48541.08 47584.11c-269.95,53.27 -548.95,81.45 -834.57,81.45 -2367.78,0 -4287.26,-1919.47 -4287.26,-4287.26 0,-1082.17 401.15,-2070.64 1062.63,-2825.04l4059.2 7030.85z"/> <path class="fil4" d="M50051.18 39788.77c1169.68,765.62 1942.6,2087.18 1942.6,3589.53 0,1502.35 -772.77,2824.16 -1942.6,3589.69l0 -7179.22z"/> <g style="clip-path:url(#id3)"> <g> <g> <path id="1" class="fil5" d="M45106.89 43469.42c1184.15,-1643.68 1311.89,437.19 592.91,680.2 -379.69,128.35 -456.07,-800.75 -456.07,-953.87l-136.84 273.67zm4834.56 501.73c0,-779.18 -829.14,-611.62 -1284.84,87.24 366.34,928.17 1299.11,457.16 1558.51,-224.07l-273.67 136.83zm-2371.67 -4150.42c-74.42,-1079.23 -3236.79,462.22 -182.45,592.9 692.97,29.63 167.87,-804.57 182.45,-592.9zm-692.19 7764.47c-315.15,-61.75 -617.94,-157.99 -904.23,-284.69 31.24,-1082.63 1294.82,-169.16 904.23,284.69zm-904.23 -284.69c-37.13,-16.44 -74,-33.25 -110.56,-50.73 46.23,-118.01 116.36,-153.8 110.56,50.73zm1915.71 -2417.22c451.87,-903.24 -2173.71,-302.27 45.61,745.41 298.18,140.76 102.39,1509.43 790.97,820.91 144.49,-144.44 -725.76,-1787.81 -836.58,-1566.32zm1801.56 -4355.63c-1324.09,-186.85 -118.42,587.58 280.81,1083.51 282.57,351.09 -466.62,1456.28 487.36,642.45 463.87,-395.67 -406.79,-808.45 -380.52,-1475.15 9.67,-245.85 -338.88,-243.93 -387.65,-250.81zm-2440.13 912.19c-468.58,-1269.8 -1765.78,535.86 -596.84,756.47 738.74,139.37 755.34,-326.99 596.84,-756.47zm-2234.83 -410.51c-401.67,-618.19 -2015.41,1193.25 -319.23,984.53 753.42,-92.72 272.74,-1056.05 319.23,-984.53z"/> </g> </g> </g> <path class="fil6" d="M50051.18 39788.77c1169.68,765.62 1942.6,2087.18 1942.6,3589.53 0,1502.35 -772.77,2824.16 -1942.6,3589.69l0 -7179.22z"/> <path class="fil7" d="M48568.49 47631.59c-278.64,56.16 -566.84,85.69 -861.98,85.69 -1198.06,0 -2282.97,-485.7 -3068.1,-1270.88 -785.17,-785.12 -1270.87,-1870.04 -1270.87,-3068.1 0,-1101.46 410.56,-2107.25 1086.93,-2872.41l54.61 94.58c-646.59,743.6 -1038.11,1715 -1038.11,2777.83 0,1169.62 474.11,2228.57 1240.57,2994.98 766.4,766.45 1825.35,1240.57 2994.97,1240.57 276.11,0 546,-26.48 807.37,-76.9l54.61 94.64z"/> <path class="fil7" d="M50051.18 39726.81c261.78,168.44 504.32,364.23 723.43,583.39 785.18,785.13 1270.88,1870.04 1270.88,3068.1 0,1198.06 -485.7,2282.98 -1270.88,3068.1 -219.11,219.17 -461.65,414.9 -723.43,583.34l0 -123.55c234.27,-155.97 452.09,-334.69 650.31,-532.91 766.46,-766.41 1240.57,-1825.36 1240.57,-2994.98 0,-1169.62 -474.11,-2228.57 -1240.57,-2994.98 -198.22,-198.22 -416.09,-376.89 -650.31,-532.86l0 -123.65z"/> <g> <path class="fil2" d="M46755.13 11382.67c-302.12,74.16 -588.98,132.44 -854.11,167.82 -1368.31,182.44 -2158.86,-243.27 -3466.3,-486.48 -1307.49,-243.26 -3131.82,-304.08 -4834.56,425.66 -1682.42,721 -3246.1,2213.73 -4896.35,3041.16l-1761.28 -3050.68c4655.47,-2688.67 10054.17,-4233.73 15812.6,-4250.8l0 4153.32z"/> <path class="fil3" d="M46755.13 38868.41l-14051.32 -24337.58c1650.25,-827.43 3213.93,-2320.16 4896.35,-3041.16 1702.74,-729.74 3527.07,-668.92 4834.56,-425.66 1307.44,243.21 2097.99,668.92 3466.3,486.48 265.13,-35.38 551.99,-93.66 854.11,-167.82l0 27485.74z"/> <path class="fil4" d="M40135.4 11999.21c2367.79,0 4287.26,1919.48 4287.26,4287.26 0,2367.79 -1919.47,4287.26 -4287.26,4287.26 -2367.79,0 -4287.26,-1919.47 -4287.26,-4287.26 0,-2367.78 1919.47,-4287.26 4287.26,-4287.26z"/> <g style="clip-path:url(#id4)"> <g> <g> <path id="1" class="fil5" d="M37535.78 16377.59c1184.15,-1643.68 1311.88,437.19 592.9,680.2 -379.68,128.35 -456.07,-800.74 -456.07,-953.87l-136.83 273.67zm4834.55 501.73c0,-779.17 -829.13,-611.62 -1284.84,87.24 366.35,928.17 1299.12,457.16 1558.51,-224.07l-273.67 136.83zm-2371.66 -4150.42c-74.42,-1079.23 -3236.79,462.22 -182.45,592.9 692.97,29.63 167.86,-804.57 182.45,-592.9zm-692.2 7764.47c-315.14,-61.75 -617.93,-157.99 -904.22,-284.69 31.24,-1082.63 1294.82,-169.15 904.22,284.69zm-904.22 -284.69c-37.13,-16.44 -74,-33.25 -110.56,-50.73 46.23,-118.01 116.35,-153.8 110.56,50.73zm1915.7 -2417.22c451.88,-903.24 -2173.7,-302.27 45.61,745.41 298.19,140.76 102.4,1509.43 790.97,820.91 144.49,-144.44 -725.76,-1787.81 -836.58,-1566.32zm1801.57 -4355.63c-1324.09,-186.84 -118.43,587.58 280.81,1083.52 282.56,351.08 -466.62,1456.27 487.35,642.44 463.88,-395.66 -406.78,-808.45 -380.51,-1475.15 9.67,-245.85 -338.88,-243.93 -387.65,-250.81zm-2440.14 912.19c-468.58,-1269.79 -1765.78,535.86 -596.83,756.47 738.74,139.37 755.34,-326.99 596.83,-756.47zm-2234.83 -410.51c-401.66,-618.19 -2015.4,1193.25 -319.23,984.53 753.43,-92.72 272.74,-1056.05 319.23,-984.53z"/> </g> </g> </g> <path class="fil6" d="M40135.4 11999.21c2367.79,0 4287.26,1919.48 4287.26,4287.26 0,2367.79 -1919.47,4287.26 -4287.26,4287.26 -2367.79,0 -4287.26,-1919.47 -4287.26,-4287.26 0,-2367.78 1919.47,-4287.26 4287.26,-4287.26z"/> <path class="fil7" d="M40135.4 11947.49c1198.06,0 2282.97,485.7 3068.1,1270.88 785.18,785.13 1270.88,1870.04 1270.88,3068.1 0,1198.06 -485.7,2282.98 -1270.88,3068.1 -785.13,785.18 -1870.04,1270.88 -3068.1,1270.88 -1198.06,0 -2282.98,-485.7 -3068.1,-1270.88 -785.18,-785.12 -1270.88,-1870.04 -1270.88,-3068.1 0,-1198.06 485.7,-2282.97 1270.88,-3068.1 785.12,-785.18 1870.04,-1270.88 3068.1,-1270.88zm2994.98 1344.01c-766.41,-766.46 -1825.36,-1240.58 -2994.98,-1240.58 -1169.62,0 -2228.57,474.12 -2994.98,1240.58 -766.45,766.4 -1240.57,1825.35 -1240.57,2994.97 0,1169.62 474.12,2228.57 1240.57,2994.98 766.41,766.45 1825.36,1240.57 2994.98,1240.57 1169.62,0 2228.57,-474.12 2994.98,-1240.57 766.45,-766.41 1240.57,-1825.36 1240.57,-2994.98 0,-1169.62 -474.12,-2228.57 -1240.57,-2994.97z"/> <path class="fil4" d="M44513.89 28144.85c821.58,0 1589.07,231.26 2241.24,632l0 7310.27c-395.67,243.1 -833.74,424 -1300.67,528.51l-4092.81 -7089.03c783.36,-849.51 1905.56,-1381.75 3152.24,-1381.75z"/> <g style="clip-path:url(#id5)"> <g> <g> <path id="1" class="fil5" d="M41914.26 32523.23c1184.16,-1643.68 1311.89,437.19 592.91,680.2 -379.69,128.35 -456.07,-800.74 -456.07,-953.87l-136.84 273.67zm4834.56 501.73c0,-779.18 -829.14,-611.62 -1284.84,87.24 366.34,928.17 1299.11,457.16 1558.51,-224.07l-273.67 136.83zm-2371.67 -4150.42c-74.41,-1079.23 -3236.79,462.22 -182.44,592.9 692.97,29.63 167.86,-804.57 182.44,-592.9zm-692.19 7764.47c-315.15,-61.75 -617.93,-157.99 -904.22,-284.69 31.23,-1082.63 1294.82,-169.15 904.22,284.69zm-904.22 -284.69c-37.13,-16.44 -74.01,-33.25 -110.57,-50.73 46.23,-118.01 116.36,-153.8 110.57,50.73zm1915.7 -2417.22c451.88,-903.24 -2173.71,-302.27 45.61,745.41 298.18,140.76 102.39,1509.43 790.97,820.91 144.49,-144.44 -725.76,-1787.81 -836.58,-1566.32zm1801.56 -4355.63c-1324.09,-186.84 -118.42,587.58 280.81,1083.51 282.57,351.09 -466.61,1456.28 487.36,642.45 463.87,-395.67 -406.79,-808.45 -380.52,-1475.15 9.68,-245.85 -338.88,-243.93 -387.65,-250.81zm-2440.13 912.19c-468.58,-1269.8 -1765.78,535.86 -596.83,756.47 738.73,139.37 755.33,-326.99 596.83,-756.47zm-2234.83 -410.51c-401.66,-618.19 -2015.4,1193.25 -319.23,984.53 753.42,-92.72 272.74,-1056.05 319.23,-984.53z"/> </g> </g> </g> <path class="fil6" d="M44513.89 28144.85c821.58,0 1589.07,231.26 2241.24,632l0 7310.27c-395.67,243.1 -833.74,424 -1300.67,528.51l-4092.81 -7089.03c783.36,-849.51 1905.56,-1381.75 3152.24,-1381.75z"/> <path class="fil7" d="M46755.13 36148.14c-388.84,234.99 -817.55,410.66 -1273.52,514.55l-54.14 -93.86c477.79,-105.08 925.37,-290.73 1327.66,-542.07l0 121.38z"/> <path class="fil7" d="M44513.89 28093.13c820.03,0 1587.1,227.55 2241.24,622.95l0 121.43c-650.05,-406.17 -1418.26,-640.95 -2241.24,-640.95 -1169.62,0 -2228.58,474.12 -2994.98,1240.57 -44.42,44.43 -87.86,89.88 -130.27,136.22l-54.19 -93.81c36.4,-39.2 73.53,-77.73 111.34,-115.53 785.12,-785.18 1870.03,-1270.88 3068.1,-1270.88z"/> </g> <path class="fil4" d="M35118.4 31155.03c2367.78,0 4287.26,1919.47 4287.26,4287.26 0,2367.79 -1919.48,4287.26 -4287.26,4287.26 -2367.79,0 -4287.26,-1919.47 -4287.26,-4287.26 0,-2367.79 1919.47,-4287.26 4287.26,-4287.26z"/> <g style="clip-path:url(#id6)"> <g> <g> <path id="1" class="fil5" d="M32518.78 35533.41c1184.15,-1643.68 1311.88,437.19 592.9,680.2 -379.69,128.35 -456.07,-800.74 -456.07,-953.87l-136.83 273.67zm4834.55 501.73c0,-779.18 -829.13,-611.62 -1284.84,87.24 366.35,928.17 1299.11,457.16 1558.51,-224.07l-273.67 136.83zm-2371.66 -4150.42c-74.42,-1079.23 -3236.8,462.22 -182.45,592.9 692.97,29.63 167.86,-804.57 182.45,-592.9zm-692.2 7764.47c-315.14,-61.75 -617.93,-157.99 -904.22,-284.69 31.23,-1082.63 1294.82,-169.15 904.22,284.69zm-904.22 -284.69c-37.13,-16.44 -74,-33.25 -110.57,-50.73 46.24,-118.01 116.36,-153.8 110.57,50.73zm1915.7 -2417.22c451.88,-903.24 -2173.7,-302.27 45.61,745.41 298.19,140.76 102.4,1509.43 790.97,820.91 144.49,-144.44 -725.76,-1787.81 -836.58,-1566.32zm1801.57 -4355.63c-1324.09,-186.84 -118.43,587.58 280.81,1083.51 282.56,351.09 -466.62,1456.28 487.35,642.45 463.88,-395.67 -406.78,-808.45 -380.51,-1475.15 9.67,-245.85 -338.89,-243.93 -387.65,-250.81zm-2440.14 912.19c-468.58,-1269.79 -1765.78,535.86 -596.83,756.47 738.74,139.37 755.34,-326.99 596.83,-756.47zm-2234.83 -410.51c-401.66,-618.19 -2015.4,1193.25 -319.23,984.53 753.43,-92.72 272.74,-1056.05 319.23,-984.53z"/> </g> </g> </g> <path class="fil6" d="M35118.4 31155.03c2367.78,0 4287.26,1919.47 4287.26,4287.26 0,2367.79 -1919.48,4287.26 -4287.26,4287.26 -2367.79,0 -4287.26,-1919.47 -4287.26,-4287.26 0,-2367.79 1919.47,-4287.26 4287.26,-4287.26z"/> <path class="fil7" d="M35118.4 31103.31c1198.06,0 2282.97,485.7 3068.1,1270.88 785.18,785.13 1270.87,1870.04 1270.87,3068.1 0,1198.06 -485.69,2282.98 -1270.87,3068.1 -785.13,785.18 -1870.04,1270.88 -3068.1,1270.88 -1198.06,0 -2282.98,-485.7 -3068.1,-1270.88 -785.18,-785.12 -1270.88,-1870.04 -1270.88,-3068.1 0,-1198.06 485.7,-2282.97 1270.88,-3068.1 785.12,-785.18 1870.04,-1270.88 3068.1,-1270.88zm2994.97 1344c-766.4,-766.45 -1825.35,-1240.57 -2994.97,-1240.57 -1169.62,0 -2228.57,474.12 -2994.98,1240.57 -766.45,766.41 -1240.57,1825.36 -1240.57,2994.98 0,1169.62 474.12,2228.57 1240.57,2994.98 766.41,766.45 1825.36,1240.57 2994.98,1240.57 1169.62,0 2228.57,-474.12 2994.97,-1240.57 766.46,-766.41 1240.58,-1825.36 1240.58,-2994.98 0,-1169.62 -474.12,-2228.57 -1240.58,-2994.98z"/> <path class="fil4" d="M33808.01 43527.39c2367.79,0 4287.26,1919.48 4287.26,4287.26 0,779.75 -208.2,1510.78 -572.01,2140.77l-7430.5 0c-363.81,-629.99 -572.01,-1361.02 -572.01,-2140.77 0,-2367.78 1919.48,-4287.26 4287.26,-4287.26zm3653.4 6531.45c-754.56,1225.73 -2108.44,2043.08 -3653.4,2043.08 -1544.96,0 -2898.84,-817.35 -3653.4,-2043.08l7306.8 0z"/> <g style="clip-path:url(#id7)"> <g> <g> <path id="1" class="fil5" d="M31208.39 47905.78c1184.15,-1643.69 1311.89,437.19 592.9,680.19 -379.68,128.36 -456.06,-800.74 -456.06,-953.87l-136.84 273.68zm4834.55 501.73c0,-779.18 -829.13,-611.63 -1284.83,87.24 366.34,928.16 1299.11,457.15 1558.51,-224.08l-273.68 136.84zm-2371.66 -4150.43c-74.42,-1079.22 -3236.79,462.22 -182.45,592.9 692.97,29.64 167.87,-804.57 182.45,-592.9zm-692.19 7764.47c-315.15,-61.74 -617.94,-157.98 -904.23,-284.68 31.24,-1082.64 1294.82,-169.16 904.23,284.68zm-904.23 -284.68c-37.13,-16.45 -74,-33.26 -110.56,-50.74 46.23,-118.01 116.35,-153.79 110.56,50.74zm1915.7 -2417.23c451.88,-903.24 -2173.7,-302.27 45.62,745.41 298.18,140.77 102.39,1509.43 790.96,820.91 144.49,-144.44 -725.75,-1787.81 -836.58,-1566.32zm1801.57 -4355.63c-1324.09,-186.84 -118.42,587.58 280.81,1083.52 282.57,351.09 -466.62,1456.27 487.35,642.44 463.88,-395.66 -406.78,-808.44 -380.51,-1475.14 9.67,-245.85 -338.88,-243.94 -387.65,-250.82zm-2440.13 912.19c-468.59,-1269.79 -1765.78,535.86 -596.84,756.47 738.74,139.37 755.34,-326.98 596.84,-756.47zm-2234.83 -410.51c-401.67,-618.19 -2015.41,1193.26 -319.23,984.54 753.42,-92.73 272.74,-1056.06 319.23,-984.54z"/> </g> </g> </g> <path class="fil6" d="M33808.01 43527.39c2367.79,0 4287.26,1919.48 4287.26,4287.26 0,779.75 -208.2,1510.78 -572.01,2140.77l-7430.5 0c-363.81,-629.99 -572.01,-1361.02 -572.01,-2140.77 0,-2367.78 1919.48,-4287.26 4287.26,-4287.26zm3653.4 6531.45c-754.56,1225.73 -2108.44,2043.08 -3653.4,2043.08 -1544.96,0 -2898.84,-817.35 -3653.4,-2043.08l7306.8 0z"/> <path class="fil7" d="M33808.01 43475.68c1198.07,0 2282.98,485.7 3068.1,1270.87 785.18,785.13 1270.88,1870.04 1270.88,3068.1 0,778.46 -205.15,1509.08 -564.15,2140.77l-119.41 0c368.67,-628.18 580.13,-1359.78 580.13,-2140.77 0,-1169.62 -474.12,-2228.57 -1240.57,-2994.97 -766.41,-766.46 -1825.36,-1240.57 -2994.98,-1240.57 -1169.62,0 -2228.57,474.11 -2994.97,1240.57 -766.46,766.4 -1240.58,1825.35 -1240.58,2994.97 0,780.99 211.46,1512.59 580.13,2140.77l-119.4 0c-359,-631.69 -564.15,-1362.31 -564.15,-2140.77 0,-1198.06 485.7,-2282.97 1270.87,-3068.1 785.13,-785.17 1870.04,-1270.87 3068.1,-1270.87zm3714.22 6583.16c-181.93,300.41 -399.18,576.98 -646.12,823.91 -785.12,785.18 -1870.03,1270.88 -3068.1,1270.88 -1198.06,0 -2282.97,-485.7 -3068.1,-1270.88 -246.93,-246.93 -464.18,-523.5 -646.12,-823.91l121.48 0c170.66,272.64 371.46,524.49 597.77,750.79 766.4,766.46 1825.35,1240.57 2994.97,1240.57 1169.62,0 2228.57,-474.11 2994.98,-1240.57 226.3,-226.3 427.11,-478.15 597.76,-750.79l121.48 0z"/> <path class="fil4" d="M48618.65 51496.71c151.31,0 300.72,7.91 447.95,23.22l-3916.58 6783.76c-514.76,-707.29 -818.63,-1578.01 -818.63,-2519.72 0,-1416.61 687.28,-2672.54 1746.33,-3453.17l826.81 -477.37c524.95,-229.35 1104.62,-356.72 1714.12,-356.72zm559.29 36.3c264.98,34.49 522.36,93.29 769.82,173.91l0 8153.99c-418.48,136.42 -865.13,210.32 -1329.11,210.32 -1385.84,0 -2617.83,-657.75 -3401.55,-1677.81l3960.84 -6860.41zm873.24 209.18c491.65,174.28 942.03,435.75 1332.68,765.74l1455.7 2521.37c43.55,244.97 66.35,497.18 66.35,754.67 0,1865.38 -1191.44,3452.18 -2854.73,4041.72l0 -8083.5zm1584.79 996.43c537,532.04 934.06,1205.05 1130.99,1958.99l-1130.99 -1958.99z"/> <g style="clip-path:url(#id8)"> <g> <g> <path id="1" class="fil5" d="M46019.03 55875.09c1184.15,-1643.69 1311.88,437.19 592.9,680.2 -379.68,128.35 -456.07,-800.75 -456.07,-953.87l-136.83 273.67zm4834.55 501.73c0,-779.18 -829.13,-611.62 -1284.84,87.24 366.35,928.17 1299.11,457.16 1558.51,-224.08l-273.67 136.84zm-2371.66 -4150.43c-74.42,-1079.22 -3236.8,462.22 -182.45,592.91 692.97,29.63 167.86,-804.57 182.45,-592.91zm-692.2 7764.48c-315.14,-61.75 -617.93,-157.99 -904.22,-284.69 31.23,-1082.64 1294.82,-169.16 904.22,284.69zm-904.22 -284.69c-37.13,-16.45 -74,-33.25 -110.57,-50.73 46.24,-118.01 116.36,-153.8 110.57,50.73zm1915.7 -2417.23c451.88,-903.24 -2173.7,-302.26 45.61,745.41 298.19,140.77 102.4,1509.44 790.97,820.91 144.49,-144.43 -725.76,-1787.81 -836.58,-1566.32zm1801.57 -4355.62c-1324.09,-186.85 -118.43,587.57 280.81,1083.51 282.56,351.09 -466.62,1456.27 487.35,642.45 463.88,-395.67 -406.78,-808.45 -380.51,-1475.15 9.67,-245.85 -338.89,-243.94 -387.65,-250.81zm-2440.14 912.18c-468.58,-1269.79 -1765.78,535.87 -596.83,756.48 738.74,139.37 755.34,-326.99 596.83,-756.48zm-2234.83 -410.5c-401.66,-618.2 -2015.4,1193.25 -319.23,984.53 753.43,-92.72 272.74,-1056.05 319.23,-984.53z"/> </g> </g> </g> <path class="fil6" d="M48618.65 51496.71c151.31,0 300.72,7.91 447.95,23.22l-3916.58 6783.76c-514.76,-707.29 -818.63,-1578.01 -818.63,-2519.72 0,-1416.61 687.28,-2672.54 1746.33,-3453.17l826.81 -477.37c524.95,-229.35 1104.62,-356.72 1714.12,-356.72zm559.29 36.3c264.98,34.49 522.36,93.29 769.82,173.91l0 8153.99c-418.48,136.42 -865.13,210.32 -1329.11,210.32 -1385.84,0 -2617.83,-657.75 -3401.55,-1677.81l3960.84 -6860.41zm873.24 209.18c491.65,174.28 942.03,435.75 1332.68,765.74l1455.7 2521.37c43.55,244.97 66.35,497.18 66.35,754.67 0,1865.38 -1191.44,3452.18 -2854.73,4041.72l0 -8083.5zm1584.79 996.43c537,532.04 934.06,1205.05 1130.99,1958.99l-1130.99 -1958.99z"/> <path class="fil7" d="M48618.65 51444.99c160.99,0 319.85,8.79 476.29,25.91l-56.68 98.1c-138.03,-13.6 -277.97,-20.58 -419.61,-20.58 -1169.62,0 -2228.57,474.12 -2994.98,1240.57 -766.45,766.41 -1240.57,1825.36 -1240.57,2994.98 0,922.17 294.77,1775.4 795.11,2470.85l-56.58 98.05c-529.19,-719.24 -841.96,-1607.59 -841.96,-2568.9 0,-1198.06 485.7,-2282.98 1270.88,-3068.1 73.48,-73.49 149.61,-144.34 228.16,-212.44l1423.54 -821.9c443.91,-153.28 920.46,-236.54 1416.4,-236.54zm587.32 39.51c254.95,34.49 502.87,91.17 741.79,167.97l0 108.81c-255.99,-84.56 -522.78,-145.37 -797.8,-179.81l56.01 -96.97zm845.21 202.67c460,160.78 884.68,396.85 1259.19,693.49l153.28 265.45c-406.62,-368.93 -885.29,-659.88 -1412.47,-849.25l0 -109.69zm1492.89 892.38c48.56,44.37 96.19,89.83 142.68,136.32 576.25,576.2 991.15,1313.9 1171.17,2139.31l-198.01 -343.02c-187.67,-597.09 -504.11,-1137.09 -916.64,-1587.63l-199.2 -344.98zm1368.25 2575.73c29.79,205.3 45.31,415.16 45.31,628.69 0,1198.06 -485.7,2282.97 -1270.88,3068.1 -456.17,456.22 -1013.55,811.29 -1635.57,1028.75l0 -109.79c593.42,-213.27 1125.51,-555.1 1562.45,-992.09 766.45,-766.4 1240.57,-1825.35 1240.57,-2994.97 0,-306.25 -32.58,-604.9 -94.33,-892.74l152.45 264.05zm-2964.56 4760.24c-418.94,134.66 -865.54,207.42 -1329.11,207.42 -1198.06,0 -2282.98,-485.69 -3068.1,-1270.87 -128.87,-128.87 -249.63,-265.86 -361.53,-410.04l55.95 -96.92c116.41,153.08 242.95,298.08 378.7,433.83 766.41,766.46 1825.36,1240.58 2994.98,1240.58 464.29,0 911.1,-74.73 1329.11,-212.81l0 108.81z"/> <path class="fil4" d="M62869.38 53860.15c2367.78,0 4287.26,1919.47 4287.26,4287.26 0,543.26 -101.31,1062.83 -285.62,1541.08l-7336.18 -4235.54c785.96,-971.46 1987.59,-1592.8 3334.54,-1592.8zm3963.06 5924.95c-643.37,1555.25 -2175.3,2649.57 -3963.06,2649.57 -2367.79,0 -4287.27,-1919.47 -4287.27,-4287.26 0,-983.45 331.39,-1889.43 888.3,-2612.81l7362.03 4250.5z"/> <g style="clip-path:url(#id9)"> <g> <g> <path id="1" class="fil5" d="M60269.76 58238.53c1184.15,-1643.68 1311.88,437.19 592.9,680.2 -379.69,128.35 -456.07,-800.74 -456.07,-953.87l-136.83 273.67zm4834.55 501.73c0,-779.18 -829.13,-611.62 -1284.84,87.24 366.34,928.17 1299.11,457.16 1558.51,-224.07l-273.67 136.83zm-2371.67 -4150.42c-74.41,-1079.23 -3236.79,462.22 -182.44,592.9 692.97,29.63 167.86,-804.57 182.44,-592.9zm-692.19 7764.47c-315.15,-61.75 -617.93,-157.99 -904.22,-284.69 31.23,-1082.63 1294.82,-169.15 904.22,284.69zm-904.22 -284.69c-37.13,-16.44 -74.01,-33.25 -110.57,-50.73 46.23,-118.01 116.36,-153.8 110.57,50.73zm1915.7 -2417.22c451.88,-903.24 -2173.71,-302.27 45.61,745.41 298.18,140.76 102.39,1509.43 790.97,820.91 144.49,-144.44 -725.76,-1787.81 -836.58,-1566.32zm1801.57 -4355.63c-1324.1,-186.84 -118.43,587.58 280.8,1083.51 282.57,351.09 -466.61,1456.28 487.36,642.45 463.87,-395.67 -406.79,-808.45 -380.52,-1475.15 9.68,-245.85 -338.88,-243.93 -387.64,-250.81zm-2440.14 912.19c-468.58,-1269.79 -1765.78,535.86 -596.83,756.47 738.73,139.37 755.33,-326.99 596.83,-756.47zm-2234.83 -410.51c-401.66,-618.19 -2015.4,1193.25 -319.23,984.53 753.42,-92.72 272.74,-1056.05 319.23,-984.53z"/> </g> </g> </g> <path class="fil6" d="M62869.38 53860.15c2367.78,0 4287.26,1919.47 4287.26,4287.26 0,543.26 -101.31,1062.83 -285.62,1541.08l-7336.18 -4235.54c785.96,-971.46 1987.59,-1592.8 3334.54,-1592.8zm3963.06 5924.95c-643.37,1555.25 -2175.3,2649.57 -3963.06,2649.57 -2367.79,0 -4287.27,-1919.47 -4287.27,-4287.26 0,-983.45 331.39,-1889.43 888.3,-2612.81l7362.03 4250.5z"/> <path class="fil7" d="M62869.38 53808.43c1198.06,0 2282.97,485.7 3068.1,1270.88 785.17,785.13 1270.87,1870.04 1270.87,3068.1 0,552.62 -103.37,1081.19 -291.82,1567.35l-90.66 -52.33c180.23,-470.44 279.05,-981.17 279.05,-1515.02 0,-1169.62 -474.11,-2228.57 -1240.57,-2994.98 -766.4,-766.45 -1825.35,-1240.57 -2994.97,-1240.57 -1169.62,0 -2228.58,474.12 -2994.98,1240.57 -103.64,103.64 -201.89,212.7 -294.41,326.58l-90.71 -52.39c97.74,-121.32 201.95,-237.26 312,-347.31 785.12,-785.18 1870.03,-1270.88 3068.1,-1270.88zm4008.42 6002.83c-219.89,529.14 -541.45,1005.38 -940.32,1404.25 -785.13,785.18 -1870.04,1270.88 -3068.1,1270.88 -1198.07,0 -2282.98,-485.7 -3068.1,-1270.88 -785.18,-785.12 -1270.88,-1870.04 -1270.88,-3068.1 0,-992.81 333.5,-1907.84 894.6,-2639.03l90.4 52.18c-552.72,715.52 -881.57,1612.81 -881.57,2586.85 0,1169.62 474.11,2228.57 1240.57,2994.98 766.4,766.45 1825.36,1240.57 2994.98,1240.57 1169.62,0 2228.57,-474.12 2994.97,-1240.57 392.57,-392.51 708.28,-861.82 923.05,-1383.31l90.4 52.18z"/> <path class="fil4" d="M50078.18 66000.42c2367.79,0 4287.26,1919.47 4287.26,4287.26 0,2367.79 -1919.47,4287.26 -4287.26,4287.26l-27 -0.36 0 -8573.8 27 -0.36zm-130.42 8572.35c-2307.39,-68.93 -4156.84,-1960.95 -4156.84,-4285.09 0,-2324.14 1849.45,-4216.15 4156.84,-4285.09l0 8570.18z"/> <g style="clip-path:url(#id10)"> <g> <g> <path id="1" class="fil5" d="M47478.56 70378.8c1184.15,-1643.68 1311.88,437.19 592.9,680.2 -379.68,128.35 -456.07,-800.74 -456.07,-953.87l-136.83 273.67zm4834.55 501.73c0,-779.17 -829.13,-611.62 -1284.84,87.24 366.35,928.17 1299.11,457.16 1558.51,-224.07l-273.67 136.83zm-2371.66 -4150.42c-74.42,-1079.23 -3236.8,462.22 -182.45,592.9 692.97,29.63 167.86,-804.57 182.45,-592.9zm-692.2 7764.47c-315.14,-61.75 -617.93,-157.99 -904.22,-284.69 31.23,-1082.63 1294.82,-169.15 904.22,284.69zm-904.22 -284.69c-37.13,-16.44 -74,-33.25 -110.57,-50.73 46.24,-118.01 116.36,-153.8 110.57,50.73zm1915.7 -2417.22c451.88,-903.24 -2173.7,-302.27 45.61,745.41 298.19,140.76 102.4,1509.43 790.97,820.91 144.49,-144.44 -725.76,-1787.81 -836.58,-1566.32zm1801.57 -4355.63c-1324.09,-186.84 -118.43,587.58 280.81,1083.52 282.56,351.08 -466.62,1456.27 487.35,642.44 463.88,-395.66 -406.78,-808.45 -380.51,-1475.15 9.67,-245.85 -338.89,-243.93 -387.65,-250.81zm-2440.14 912.19c-468.58,-1269.79 -1765.78,535.86 -596.83,756.47 738.74,139.37 755.34,-326.99 596.83,-756.47zm-2234.83 -410.51c-401.66,-618.19 -2015.4,1193.25 -319.23,984.53 753.43,-92.72 272.74,-1056.05 319.23,-984.53z"/> </g> </g> </g> <path class="fil6" d="M50078.18 66000.42c2367.79,0 4287.26,1919.47 4287.26,4287.26 0,2367.79 -1919.47,4287.26 -4287.26,4287.26l-27 -0.36 0 -8573.8 27 -0.36zm-130.42 8572.35c-2307.39,-68.93 -4156.84,-1960.95 -4156.84,-4285.09 0,-2324.14 1849.45,-4216.15 4156.84,-4285.09l0 8570.18z"/> <path class="fil7" d="M50078.18 65948.7c1198.06,0 2282.97,485.7 3068.1,1270.88 785.18,785.13 1270.88,1870.04 1270.88,3068.1 0,1198.06 -485.7,2282.98 -1270.88,3068.1 -785.13,785.18 -1870.04,1270.88 -3068.1,1270.88l-27 -0.16 0 -103.43 27 0.16c1169.62,0 2228.57,-474.12 2994.98,-1240.57 766.45,-766.41 1240.57,-1825.36 1240.57,-2994.98 0,-1169.62 -474.12,-2228.57 -1240.57,-2994.97 -766.41,-766.46 -1825.36,-1240.58 -2994.98,-1240.58l-27 0.16 0 -103.43 27 -0.16zm-130.42 8675.94c-1146.2,-33.82 -2181.15,-512.28 -2937.68,-1268.86 -785.18,-785.12 -1270.88,-1870.04 -1270.88,-3068.1 0,-1198.06 485.7,-2282.97 1270.88,-3068.1 756.53,-756.58 1791.48,-1235.04 2937.68,-1268.86l0 103.48c-1117.81,33.82 -2126.75,500.65 -2864.56,1238.51 -766.45,766.4 -1240.57,1825.35 -1240.57,2994.97 0,1169.62 474.12,2228.57 1240.57,2994.98 737.81,737.86 1746.75,1204.68 2864.56,1238.5l0 103.48z"/> <path class="fil4" d="M31834.49 55601.52c1755.6,0 3264.52,1055.38 3927.49,2566.16l-7381.06 4261.46c-523.87,-711.02 -833.69,-1589.44 -833.69,-2540.36 0,-2367.78 1919.48,-4287.26 4287.26,-4287.26zm3968.04 2661.68c205.61,501.37 319.23,1050.16 319.23,1625.58 0,2367.79 -1919.48,4287.27 -4287.27,4287.27 -1379.63,0 -2606.8,-651.81 -3391.05,-1664.12l7359.09 -4248.73z"/> <g style="clip-path:url(#id11)"> <g> <g> <path id="1" class="fil5" d="M29234.87 59979.9c1184.16,-1643.68 1311.89,437.2 592.91,680.2 -379.69,128.35 -456.07,-800.74 -456.07,-953.87l-136.84 273.67zm4834.56 501.73c0,-779.17 -829.14,-611.62 -1284.84,87.25 366.34,928.16 1299.11,457.15 1558.51,-224.08l-273.67 136.83zm-2371.67 -4150.42c-74.41,-1079.23 -3236.79,462.22 -182.45,592.9 692.98,29.63 167.87,-804.57 182.45,-592.9zm-692.19 7764.47c-315.15,-61.75 -617.94,-157.99 -904.22,-284.69 31.23,-1082.63 1294.82,-169.15 904.22,284.69zm-904.22 -284.69c-37.14,-16.44 -74.01,-33.25 -110.57,-50.73 46.23,-118.01 116.36,-153.79 110.57,50.73zm1915.7 -2417.22c451.87,-903.24 -2173.71,-302.27 45.61,745.41 298.18,140.76 102.39,1509.43 790.97,820.91 144.49,-144.44 -725.76,-1787.81 -836.58,-1566.32zm1801.56 -4355.63c-1324.09,-186.84 -118.42,587.58 280.81,1083.52 282.57,351.08 -466.62,1456.27 487.36,642.44 463.87,-395.66 -406.79,-808.45 -380.52,-1475.15 9.67,-245.84 -338.88,-243.93 -387.65,-250.81zm-2440.13 912.19c-468.58,-1269.79 -1765.78,535.86 -596.83,756.47 738.73,139.37 755.33,-326.99 596.83,-756.47zm-2234.83 -410.51c-401.66,-618.19 -2015.41,1193.25 -319.23,984.54 753.42,-92.73 272.74,-1056.06 319.23,-984.54z"/> </g> </g> </g> <path class="fil6" d="M31834.49 55601.52c1755.6,0 3264.52,1055.38 3927.49,2566.16l-7381.06 4261.46c-523.87,-711.02 -833.69,-1589.44 -833.69,-2540.36 0,-2367.78 1919.48,-4287.26 4287.26,-4287.26zm3968.04 2661.68c205.61,501.37 319.23,1050.16 319.23,1625.58 0,2367.79 -1919.48,4287.27 -4287.27,4287.27 -1379.63,0 -2606.8,-651.81 -3391.05,-1664.12l7359.09 -4248.73z"/> <path class="fil7" d="M31834.49 55549.81c1198.07,0 2282.98,485.7 3068.11,1270.87 377.82,377.78 686.29,825 904.68,1320.89l-90.13 52.02c-213.38,-488.18 -516.22,-928.37 -887.68,-1299.78 -766.4,-766.46 -1825.36,-1240.58 -2994.98,-1240.58 -1169.62,0 -2228.57,474.12 -2994.97,1240.58 -766.46,766.4 -1240.57,1825.35 -1240.57,2994.97 0,941.51 307.28,1811.24 826.91,2514.45l-90.14 52.03c-528.11,-718.78 -840.2,-1606.25 -840.2,-2566.48 0,-1198.06 485.7,-2282.97 1270.87,-3068.1 785.13,-785.17 1870.04,-1270.87 3068.1,-1270.87zm4013.39 2687.17c209.8,509.18 325.59,1066.97 325.59,1651.8 0,1198.07 -485.7,2282.98 -1270.87,3068.1 -785.13,785.18 -1870.04,1270.88 -3068.11,1270.88 -1198.06,0 -2282.97,-485.7 -3068.1,-1270.88 -131.45,-131.45 -254.48,-271.39 -368.3,-418.78l90.39 -52.18c108.71,139.89 225.94,272.79 351.04,397.84 766.4,766.46 1825.35,1240.57 2994.97,1240.57 1169.62,0 2228.58,-474.11 2994.98,-1240.57 766.46,-766.41 1240.57,-1825.36 1240.57,-2994.98 0,-566.01 -111.03,-1106.06 -312.51,-1599.62l90.35 -52.18z"/> <path class="fil4" d="M71605.66 43378.3c2367.79,0 4287.27,1919.48 4287.27,4287.26 0,842.12 -243.01,1627.4 -662.36,2289.86l-7249.81 0c-419.35,-662.46 -662.36,-1447.74 -662.36,-2289.86 0,-2367.78 1919.48,-4287.26 4287.26,-4287.26zm3557.53 6680.54c-770.13,1142.53 -2076.07,1893.99 -3557.53,1893.99 -1481.45,0 -2787.39,-751.46 -3557.52,-1893.99l7115.05 0z"/> <g style="clip-path:url(#id12)"> <g> <g> <path id="1" class="fil5" d="M69006.04 47756.68c1184.15,-1643.68 1311.89,437.19 592.91,680.2 -379.69,128.35 -456.07,-800.74 -456.07,-953.87l-136.84 273.67zm4834.56 501.73c0,-779.17 -829.14,-611.62 -1284.84,87.25 366.34,928.16 1299.11,457.15 1558.51,-224.08l-273.67 136.83zm-2371.67 -4150.42c-74.42,-1079.23 -3236.79,462.22 -182.45,592.9 692.97,29.63 167.87,-804.57 182.45,-592.9zm-692.19 7764.47c-315.15,-61.75 -617.94,-157.99 -904.23,-284.69 31.24,-1082.63 1294.82,-169.15 904.23,284.69zm-904.23 -284.69c-37.13,-16.44 -74,-33.25 -110.56,-50.73 46.23,-118.01 116.36,-153.8 110.56,50.73zm1915.7 -2417.22c451.88,-903.24 -2173.7,-302.27 45.62,745.41 298.18,140.76 102.39,1509.43 790.96,820.91 144.49,-144.44 -725.75,-1787.81 -836.58,-1566.32zm1801.57 -4355.63c-1324.09,-186.84 -118.42,587.58 280.81,1083.52 282.57,351.08 -466.62,1456.27 487.35,642.44 463.88,-395.66 -406.78,-808.45 -380.51,-1475.15 9.67,-245.84 -338.88,-243.93 -387.65,-250.81zm-2440.13 912.19c-468.59,-1269.79 -1765.78,535.86 -596.84,756.47 738.74,139.37 755.34,-326.99 596.84,-756.47zm-2234.83 -410.51c-401.67,-618.19 -2015.41,1193.25 -319.23,984.54 753.42,-92.73 272.74,-1056.06 319.23,-984.54z"/> </g> </g> </g> <path class="fil6" d="M71605.66 43378.3c2367.79,0 4287.27,1919.48 4287.27,4287.26 0,842.12 -243.01,1627.4 -662.36,2289.86l-7249.81 0c-419.35,-662.46 -662.36,-1447.74 -662.36,-2289.86 0,-2367.78 1919.48,-4287.26 4287.26,-4287.26zm3557.53 6680.54c-770.13,1142.53 -2076.07,1893.99 -3557.53,1893.99 -1481.45,0 -2787.39,-751.46 -3557.52,-1893.99l7115.05 0z"/> <path class="fil7" d="M71605.66 43326.59c1198.07,0 2282.98,485.7 3068.1,1270.87 785.18,785.13 1270.88,1870.04 1270.88,3068.1 0,840.46 -239.02,1625.22 -652.79,2289.86l-122.41 0c425.09,-660.24 671.77,-1446.24 671.77,-2289.86 0,-1169.62 -474.11,-2228.57 -1240.57,-2994.97 -766.41,-766.46 -1825.36,-1240.58 -2994.98,-1240.58 -1169.62,0 -2228.57,474.12 -2994.97,1240.58 -766.46,766.4 -1240.58,1825.35 -1240.58,2994.97 0,843.62 246.68,1629.62 671.77,2289.86l-122.41 0c-413.76,-664.64 -652.78,-1449.4 -652.78,-2289.86 0,-1198.06 485.7,-2282.97 1270.87,-3068.1 785.13,-785.17 1870.04,-1270.87 3068.1,-1270.87zm3619.74 6732.25c-161.14,243.22 -346.12,469.31 -551.64,674.82 -785.12,785.18 -1870.03,1270.88 -3068.1,1270.88 -1198.06,0 -2282.97,-485.7 -3068.1,-1270.88 -205.51,-205.51 -390.49,-431.6 -551.63,-674.82l124.78 0c148.06,215.81 315.51,417.23 499.98,601.7 766.4,766.46 1825.35,1240.57 2994.97,1240.57 1169.62,0 2228.57,-474.11 2994.98,-1240.57 184.46,-184.47 351.91,-385.89 499.97,-601.7l124.79 0z"/> </g> </g> </svg>