<?xml version="1.0" encoding="UTF-8"?>
<svg width="1300" height="900" version="1.1" viewBox="0 0 1300 900.00001" xmlns="http://www.w3.org/2000/svg">
 <g transform="translate(0 -152.36)">
  <rect y="152.36" width="1300" height="900" fill="#6c80ff"/>
  <g transform="matrix(2.6932 0 0 2.6932 -36.982 -65.259)">
   <g transform="matrix(1.2974 0 0 1.2974 -75.878 13.329)">
    <path transform="matrix(1 0 -.35465 .935 0 0)" d="m463.24 114.97 6.4483 18.182 6.4483 18.182v123.91l-19.053-17.114 6.1565-19.25-16.118-65.159z" color="#000000" fill="#9a917b"/>
    <path transform="matrix(1 0 -.35465 .935 0 0)" d="m164.62 238.88 146.07-13.352 152.55 13.352 12.897 36.364h-298.62z" color="#000000" fill="#bfb194"/>
    <path d="m215.5 224.64c0.0934 3.3026 4.0597 5.7812 9.8438 5.7812 5.7881 0 11.513-2.4752 13.969-5.7812l4e-3 -1.2881-11.911 1.2881-11.905-1.2881z" color="#000000" fill="#a18e63"/>
    <ellipse transform="matrix(1 0 0 .78619 -.96249 61.671)" cx="150.88" cy="205.65" rx="13.163" ry="10.735" color="#000000" fill="#a18e63"/>
    <ellipse transform="matrix(1 0 0 .78619 157.63 61.671)" cx="150.88" cy="205.65" rx="13.163" ry="10.735" color="#000000" fill="#a18e63"/>
    <rect transform="matrix(1 0 -.35465 .935 0 0)" x="164.62" y="114.97" width="298.62" height="123.91" color="#000000" fill="#cec4ae"/>
    <circle transform="matrix(1 0 -.21919 .61224 57.857 177.36)" cx="186.02" cy="72.29" r="12.235" color="#000000" fill="#cec4ae"/>
    <g transform="matrix(1.1759 0 -.18442 .52518 31.554 -38.258)" opacity=".62724">
     <circle cx="249.29" cy="383.47" r="98.164" color="#000000" fill="#eef0bb"/>
     <circle transform="matrix(.89209 0 0 .89209 26.902 41.382)" cx="249.29" cy="383.47" r="98.164" color="#000000" fill="#d93434"/>
     <path d="m224.22 308.24c-4.9937 1.4981-11.985 5.9924-9.9874 9.488 1.9975 3.4956 5.9924 4.9937 0.99873 9.488-4.9937 4.4943-21.972 10.986-21.972 14.981s0.99874 6.4918 4.9937 7.4905 8.4893 3.995 7.9899 7.4905-0.99874 9.9874 4.4943 10.986 12.984 1.4981 14.981-2.4968c1.9975-3.995 0.99873-12.984 9.9874-11.985 8.9886 0.99873 17.478 3.995 20.474 0 2.9962-3.995 6.9912-6.4918 2.4968-11.486-4.4943-4.9937-13.483-12.984-6.9912-16.979s16.479-4.9937 19.475-1.9975c2.9962 2.9962 3.4956 7.4905 3.995 11.486 0.49937 3.995 3.4956 7.4905 1.4981 10.986-1.9975 3.4956-5.9924 5.4931-9.488 7.9899s-6.9912 0.99873-7.9899 5.9924c-0.99874 4.9937-13.483 6.9912-17.977 6.4918-4.4943-0.49937-9.9874-2.9962-9.488 2.4968s-7.4905 10.986-10.986 10.487c-3.4956-0.49936-8.4893-3.4956-12.484-3.995-3.995-0.49937-13.982 3.995-13.982-1.4981s1.4981-10.487-0.49937-14.482c-1.9975-3.995-9.488-8.9886-10.986-6.9912-1.4981 1.9975-3.995 6.4918-1.4981 11.485 2.4968 4.9937 0.49937 7.9899-0.99874 13.982s-5.4931 7.4905-3.4956 11.985c1.9975 4.4943 2.4968 9.9874 1.9975 13.982-0.49937 3.995-2.9962 10.986 0.99874 13.483 3.995 2.4968 5.9924 3.4956 9.488 9.9874s2.9962 9.9874 7.9899 12.984c4.9937 2.9962 13.483 7.9899 16.479 9.9874 2.9962 1.9975 21.972 11.485 28.963 10.487 6.9912-0.99873 11.985-2.4968 21.972-2.4968 9.9874 0 7.4905 1.4981 16.479-5.4931 8.9886-6.9912 6.4918-7.4905 14.482-11.486 7.9899-3.995 9.9874-4.9937 8.4893-8.4893s-6.9912-6.9912-11.985-6.9912-12.984 2.4968-14.981 5.9924c-1.9975 3.4956-3.4956 7.9899-9.9874 8.4893s-9.488-0.99874-9.9874-6.4918-0.99874-11.985-8.4893-12.484-9.488 2.4968-13.483-0.49937c-3.995-2.9962-9.488-8.9886-15.48-4.9937-5.9924 3.995-4.9937 6.9912-11.486 7.4905-6.4918 0.49937-11.485-4.4943-7.9899-9.9874 3.4956-5.4931 6.4918-11.485 5.4931-13.483s-2.9962-4.4943-9.9874-4.4943-10.487-5.4931-5.9924-8.4893c4.4943-2.9962 9.488-5.4931 13.483-3.4956s10.487 4.4943 11.485 7.9899c0.99874 3.4956-1.9975 8.9886-0.49936 12.484 1.4981 3.4956 7.4905 5.4931 12.984 4.4943 5.4931-0.99874 4.4943-2.4968 13.982 0.49937 9.488 2.9962 15.48 5.4931 18.976 7.4905 3.4956 1.9975 5.4931 2.9962 7.4905 6.4918 1.9975 3.4956 3.4956 1.9975 11.485-1.9975 7.9899-3.995 11.485-4.9937 15.98-3.995 4.4943 0.99874 5.9924 4.4943 11.486 4.9937s10.487-3.4956 12.484-6.9912c1.9975-3.4956 4.4943-9.9874 4.4943-9.9874s-0.49937-4.9937 0.99874-10.487c1.4981-5.4931 0-8.4893-0.99874-11.485-0.99874-2.9962 0.49937-0.49937-1.4981-11.985s-1.4981-14.981-4.4943-17.478c-2.9962-2.4968-8.9886-7.9899-10.986-13.982-1.9975-5.9924-5.9924-11.485-8.9886-11.485s-5.9924 1.9975-5.4931 6.4918c0.49937 4.4943 3.4956 14.981 4.4943 18.976 0.99874 3.995 1.9975 13.483 3.995 17.977 1.9975 4.4943 4.9937 7.9899 4.9937 12.984 0 4.9937-1.9975 14.981-10.487 14.981-8.4893 0-11.985-2.4968-15.48-6.9912-3.4956-4.4943-10.487-8.9886-15.98-6.4918-5.4931 2.4968-9.9874 5.9924-13.483 4.9937-3.4956-0.99874-7.9899-4.4943-1.9975-9.9874s12.984-10.986 16.979-12.484c3.995-1.4981 11.485 0.49937 14.482-6.4918 2.9962-6.9912 1.9975-6.9912 3.4956-13.982 1.4981-6.9912 7.4905-3.4956 1.9975-13.982-5.4931-10.487-5.9924-13.982-10.986-18.477-4.9937-4.4943-8.9886-11.485-17.977-10.487-8.9886 0.99874-7.4905 2.9962-15.48 1.4981-7.9899-1.4981-16.479 1.9975-16.479 1.9975z" fill="#e4df29"/>
     <circle transform="matrix(.97436 0 0 .97436 154.36 3.8831)" cx="99.374" cy="326.72" r="19.475" color="#000000" fill="#9e0505"/>
     <circle transform="matrix(.97436 0 0 .97436 209.79 65.305)" cx="99.374" cy="326.72" r="19.475" color="#000000" fill="#9e0505"/>
     <circle transform="matrix(.97436 0 0 .97436 182.32 114.24)" cx="99.374" cy="326.72" r="19.475" color="#000000" fill="#9e0505"/>
     <circle transform="matrix(.97436 0 0 .97436 121.9 111.75)" cx="99.374" cy="326.72" r="19.475" color="#000000" fill="#9e0505"/>
     <circle transform="matrix(.97436 0 0 .97436 97.928 54.319)" cx="99.374" cy="326.72" r="19.475" color="#000000" fill="#9e0505"/>
     <circle transform="matrix(.97436 0 0 .97436 154.86 58.814)" cx="99.374" cy="326.72" r="19.475" color="#000000" fill="#9e0505"/>
    </g>
   </g>
  </g>
 </g>
</svg>
