<?xml version='1.0' encoding='utf-8'?>
<svg xmlns="http://www.w3.org/2000/svg" width="100%" height="100%" viewBox="0 0 6887 7016" version="1.1" style="fill-rule:evenodd;clip-rule:evenodd;stroke-linejoin:round;stroke-miterlimit:2;"> <g transform="matrix(1,0,0,1,-17042.1,-6234.32)"> <g id="Page-11" transform="matrix(11.5682,0,0,8.33333,17042.1,6234.32)"> <rect x="0" y="0" width="595.276" height="841.89" style="fill:none;"/> <clipPath id="_clip1"> <rect x="0" y="0" width="595.276" height="841.89"/> </clipPath> <g clip-path="url(#_clip1)"> <g id="Layer-1"> </g> <g transform="matrix(0.720367,0,0,1.4281,-34.1847,-60.4365)"> <rect x="0" y="0" width="921.26" height="708.662" style="fill:url(#_Linear2);"/> </g> <g transform="matrix(0.355903,0,0,0.494058,-206.593,-7871.89)"> <g transform="matrix(5.35651,0,0,5.35651,1442.2,16768.5)"> <path d="M0,-135.465L0,0L95.79,-95.79C70.798,-119.719 37.142,-134.668 0,-135.465" style="fill:rgb(250,177,46);fill-rule:nonzero;"/> </g> <g transform="matrix(5.35651,0,0,5.35651,1445.06,16477.3)"> <path d="M0,66.981L94.725,66.981C94.167,41.009 83.714,17.476 66.981,0L0,66.981Z" style="fill:white;fill-rule:nonzero;"/> </g> <g transform="matrix(5.35651,0,0,5.35651,1445.06,17218.3)"> <path d="M0,-66.981L66.981,0C83.714,-17.476 94.167,-41.009 94.725,-66.981L0,-66.981Z" style="fill:rgb(250,177,46);fill-rule:nonzero;"/> </g> <g transform="matrix(5.35651,0,0,5.35651,1428.48,17383.5)"> <path d="M0,-94.725L0,0C25.971,-0.558 49.505,-11.011 66.982,-27.744L0,-94.725Z" style="fill:white;fill-rule:nonzero;"/> </g> <g transform="matrix(5.35651,0,0,5.35651,1405.05,17383.5)"> <path d="M0,-94.725L-66.981,-27.744C-49.505,-11.011 -25.972,-0.558 0,0L0,-94.725Z" style="fill:rgb(250,177,46);fill-rule:nonzero;"/> </g> <g transform="matrix(5.35651,0,0,5.35651,1388.48,17218.3)"> <path d="M0,-66.981L-94.725,-66.981C-94.167,-41.009 -83.714,-17.476 -66.981,0L0,-66.981Z" style="fill:white;fill-rule:nonzero;"/> </g> <g transform="matrix(5.35651,0,0,5.35651,1388.48,16477.3)"> <path d="M0,66.981L-66.981,0C-83.714,17.476 -94.167,41.009 -94.725,66.981L0,66.981Z" style="fill:rgb(250,177,46);fill-rule:nonzero;"/> </g> <g transform="matrix(5.35651,0,0,5.35651,1405.05,16312.1)"> <path d="M0,94.725L0,0C-25.972,0.558 -49.505,11.011 -66.981,27.744L0,94.725Z" style="fill:white;fill-rule:nonzero;"/> </g> <g transform="matrix(0,-5.35651,-5.35651,0,1263.49,16435.6)"> <path d="M-10.621,-10.621C-16.487,-10.621 -21.241,-5.866 -21.241,0C-21.241,5.865 -16.487,10.621 -10.621,10.621C-4.755,10.621 0,5.865 0,0C0,-5.866 -4.755,-10.621 -10.621,-10.621" style="fill:rgb(30,28,26);fill-rule:nonzero;"/> </g> <g transform="matrix(0,-5.35651,-5.35651,0,1149.71,16885.9)"> <path d="M-10.621,-10.621C-16.487,-10.621 -21.242,-5.866 -21.242,0C-21.242,5.865 -16.487,10.621 -10.621,10.621C-4.756,10.621 0,5.865 0,0C0,-5.866 -4.756,-10.621 -10.621,-10.621" style="fill:rgb(30,28,26);fill-rule:nonzero;"/> </g> <g transform="matrix(0,-5.35651,-5.35651,0,1550.99,17120.5)"> <path d="M-10.621,-10.62C-16.486,-10.62 -21.241,-5.865 -21.241,0C-21.241,5.866 -16.486,10.621 -10.621,10.621C-4.755,10.621 -0,5.866 -0,0C-0,-5.865 -4.755,-10.62 -10.621,-10.62" style="fill:rgb(30,28,26);fill-rule:nonzero;"/> </g> <g transform="matrix(0,-5.35651,-5.35651,0,1807.82,16885.9)"> <path d="M-10.621,-10.621C-16.487,-10.621 -21.241,-5.866 -21.241,-0.001C-21.241,5.865 -16.487,10.621 -10.621,10.621C-4.756,10.621 0,5.865 0,-0.001C0,-5.866 -4.756,-10.621 -10.621,-10.621" style="fill:rgb(250,234,13);fill-rule:nonzero;"/> </g> <g transform="matrix(0,-5.35651,-5.35651,0,1603.39,16896.8)"> <path d="M-4.936,-4.936C-7.662,-4.936 -9.872,-2.726 -9.872,0.001C-9.872,2.726 -7.662,4.936 -4.936,4.936C-2.21,4.936 0,2.726 0,0.001C0,-2.726 -2.21,-4.936 -4.936,-4.936" style="fill:rgb(13,102,53);fill-rule:nonzero;"/> </g> <g transform="matrix(0,-5.35651,-5.35651,0,1320.38,17156)"> <path d="M-4.936,-4.936C-7.662,-4.936 -9.872,-2.727 -9.872,0.001C-9.872,2.726 -7.662,4.936 -4.936,4.936C-2.209,4.936 0.001,2.726 0.001,0.001C0.001,-2.727 -2.209,-4.936 -4.936,-4.936" style="fill:rgb(13,102,53);fill-rule:nonzero;"/> </g> <g transform="matrix(0,-5.35651,-5.35651,0,1146.41,16688.2)"> <path d="M-7.106,-7.107C-11.031,-7.107 -14.213,-3.925 -14.213,0C-14.213,3.925 -11.031,7.106 -7.106,7.106C-3.181,7.106 0,3.925 0,0C0,-3.925 -3.181,-7.107 -7.106,-7.107" style="fill:rgb(13,102,53);fill-rule:nonzero;"/> </g> <g transform="matrix(0,-5.35651,-5.35651,0,1331.17,16603.2)"> <path d="M-5.782,-5.783C-8.976,-5.783 -11.565,-3.194 -11.565,0C-11.565,3.194 -8.976,5.782 -5.782,5.782C-2.589,5.782 -0,3.194 -0,0C-0,-3.194 -2.589,-5.783 -5.782,-5.783" style="fill:rgb(30,28,26);fill-rule:nonzero;"/> </g> <g transform="matrix(0,-5.35651,-5.35651,0,1787.27,16620.4)"> <path d="M-6.784,-6.784C-10.531,-6.784 -13.568,-3.746 -13.568,0C-13.568,3.747 -10.531,6.784 -6.784,6.784C-3.037,6.784 0,3.747 0,0C0,-3.746 -3.037,-6.784 -6.784,-6.784" style="fill:rgb(30,28,26);fill-rule:nonzero;"/> </g> <g transform="matrix(0,-5.35651,-5.35651,0,1624.32,16744.6)"> <path d="M-4.326,-4.327C-6.716,-4.327 -8.653,-2.39 -8.653,-0.001C-8.653,2.389 -6.716,4.326 -4.326,4.326C-1.937,4.326 -0,2.389 -0,-0.001C-0,-2.39 -1.937,-4.327 -4.326,-4.327" style="fill:rgb(30,28,26);fill-rule:nonzero;"/> </g> <g transform="matrix(0,-5.35651,-5.35651,0,1346.82,16999.7)"> <path d="M-4.327,-4.326C-6.716,-4.326 -8.653,-2.389 -8.653,0.001C-8.653,2.39 -6.716,4.327 -4.327,4.327C-1.937,4.327 -0,2.39 -0,0.001C-0,-2.389 -1.937,-4.326 -4.327,-4.326" style="fill:rgb(250,234,13);fill-rule:nonzero;"/> </g> <g transform="matrix(0,-5.35651,-5.35651,0,1240.32,16767.8)"> <path d="M-4.327,-4.326C-6.716,-4.326 -8.653,-2.389 -8.653,0.001C-8.653,2.39 -6.716,4.327 -4.327,4.327C-1.937,4.327 -0,2.39 -0,0.001C-0,-2.389 -1.937,-4.326 -4.327,-4.326" style="fill:rgb(229,30,37);fill-rule:nonzero;"/> </g> <g transform="matrix(0,-5.35651,-5.35651,0,1550.99,16462.4)"> <path d="M-9.782,-9.782C-15.183,-9.782 -19.563,-5.402 -19.563,-0.001C-19.563,5.403 -15.183,9.782 -9.782,9.782C-4.379,9.782 0.001,5.403 0.001,-0.001C0.001,-5.402 -4.379,-9.782 -9.782,-9.782" style="fill:rgb(229,30,37);fill-rule:nonzero;"/> </g> <g transform="matrix(0,-5.35651,-5.35651,0,1647.5,16401.1)"> <path d="M-6.439,-6.439C-9.995,-6.439 -12.877,-3.556 -12.877,-0C-12.877,3.555 -9.995,6.439 -6.439,6.439C-2.883,6.439 -0,3.555 -0,-0C-0,-3.556 -2.883,-6.439 -6.439,-6.439" style="fill:rgb(13,102,53);fill-rule:nonzero;"/> </g> <g transform="matrix(0,-5.35651,-5.35651,0,1801.77,16265.5)"> <path d="M-4.553,-4.553C-7.068,-4.553 -9.105,-2.515 -9.105,0C-9.105,2.514 -7.068,4.553 -4.553,4.553C-2.038,4.553 0,2.514 0,0C0,-2.515 -2.038,-4.553 -4.553,-4.553" style="fill:white;fill-rule:nonzero;"/> </g> <g transform="matrix(0,-5.35651,-5.35651,0,1080.13,16596)"> <path d="M-4.553,-4.553C-7.068,-4.553 -9.105,-2.514 -9.105,0C-9.105,2.514 -7.068,4.553 -4.553,4.553C-2.039,4.553 0,2.514 0,0C0,-2.514 -2.039,-4.553 -4.553,-4.553" style="fill:white;fill-rule:nonzero;"/> </g> <g transform="matrix(0,-5.35651,-5.35651,0,1689.23,16898.9)"> <path d="M-4.553,-4.553C-7.066,-4.553 -9.105,-2.515 -9.105,0C-9.105,2.514 -7.066,4.553 -4.553,4.553C-2.038,4.553 0,2.514 0,0C0,-2.515 -2.038,-4.553 -4.553,-4.553" style="fill:white;fill-rule:nonzero;"/> </g> <g transform="matrix(0,-5.35651,-5.35651,0,1269.55,17071.7)"> <path d="M-4.553,-4.553C-7.068,-4.553 -9.106,-2.514 -9.106,0C-9.106,2.514 -7.068,4.553 -4.553,4.553C-2.039,4.553 0,2.514 0,0C0,-2.514 -2.039,-4.553 -4.553,-4.553" style="fill:white;fill-rule:nonzero;"/> </g> <g transform="matrix(0,-5.35651,-5.35651,0,1014.23,16673.1)"> <path d="M-7.75,-7.75C-12.03,-7.75 -15.5,-4.28 -15.5,0C-15.5,4.28 -12.03,7.75 -7.75,7.75C-3.47,7.75 0,4.28 0,0C0,-4.28 -3.47,-7.75 -7.75,-7.75" style="fill:rgb(250,234,13);fill-rule:nonzero;"/> </g> <g transform="matrix(0,-5.35651,-5.35651,0,1217.14,17165.4)"> <path d="M-9.887,-9.889C-15.349,-9.889 -19.777,-5.462 -19.777,-0.001C-19.777,5.462 -15.349,9.887 -9.887,9.887C-4.426,9.887 0.001,5.462 0.001,-0.001C0.001,-5.462 -4.426,-9.889 -9.887,-9.889" style="fill:rgb(229,30,37);fill-rule:nonzero;"/> </g> <g transform="matrix(0,-5.35651,-5.35651,0,1743.03,17011.1)"> <path d="M-6.784,-6.784C-10.531,-6.784 -13.567,-3.747 -13.567,0C-13.567,3.746 -10.531,6.784 -6.784,6.784C-3.036,6.784 0,3.746 0,0C0,-3.747 -3.036,-6.784 -6.784,-6.784" style="fill:rgb(229,30,37);fill-rule:nonzero;"/> </g> <g transform="matrix(0,-5.35651,-5.35651,0,1607.87,16195)"> <path d="M-15.188,-15.189C-23.577,-15.189 -30.377,-8.389 -30.377,-0.001C-30.377,8.387 -23.577,15.188 -15.188,15.188C-6.8,15.188 -0,8.387 -0,-0.001C-0,-8.389 -6.8,-15.189 -15.188,-15.189" style="fill:rgb(250,234,13);fill-rule:nonzero;"/> </g> <g transform="matrix(-4.94825,2.0511,2.0511,4.94825,1089.41,17140.5)"> <path d="M11.155,-57.08C13.719,-51.479 17.399,-41.533 17.627,-28.649C17.879,-14.402 13.789,-3.451 11.155,2.306C12.146,-7.189 12.769,-17.765 12.694,-29.257C12.628,-39.292 12.039,-48.604 11.155,-57.08" style="fill:rgb(30,28,26);fill-rule:nonzero;"/> </g> <g transform="matrix(4.94828,-2.05102,-2.05102,-4.94828,1965.97,16781.9)"> <path d="M-11.361,-2.22C-8.796,3.382 -5.116,13.327 -4.888,26.212C-4.636,40.458 -8.727,51.41 -11.361,57.166C-10.37,47.671 -9.747,37.095 -9.821,25.603C-9.887,15.569 -10.477,6.257 -11.361,-2.22" style="fill:rgb(30,28,26);fill-rule:nonzero;"/> </g> <g transform="matrix(-4.94925,-2.04867,-2.04867,4.94925,865.838,16778.2)"> <path d="M-11.58,-57.173C-9.015,-51.571 -5.335,-41.626 -5.107,-28.742C-4.855,-14.496 -8.945,-3.544 -11.58,2.213C-10.589,-7.282 -9.965,-17.858 -10.041,-29.35C-10.106,-39.384 -10.695,-48.696 -11.58,-57.173" style="fill:rgb(244,146,31);fill-rule:nonzero;"/> </g> <g transform="matrix(4.9493,2.04856,2.04856,-4.9493,1739.64,17143.6)"> <path d="M11.365,-2.302C13.929,3.3 17.609,13.245 17.838,26.129C18.089,40.375 13.999,51.327 11.365,57.085C12.356,47.589 12.979,37.012 12.904,25.522C12.838,15.487 12.249,6.175 11.365,-2.302" style="fill:rgb(244,146,31);fill-rule:nonzero;"/> </g> <g transform="matrix(-2.0511,-4.94825,-4.94825,2.0511,1124.45,16297.7)"> <path d="M-27.533,-40.908C-24.969,-35.307 -21.29,-25.362 -21.061,-12.477C-20.809,1.769 -24.899,12.721 -27.533,18.478C-26.542,8.983 -25.919,-1.594 -25.994,-13.085C-26.06,-23.12 -26.649,-32.432 -27.533,-40.908" style="fill:rgb(30,28,26);fill-rule:nonzero;"/> </g> <g transform="matrix(2.05102,4.94828,4.94828,-2.05102,1483.06,17174.2)"> <path d="M27.327,-18.393C29.891,-12.791 33.57,-2.845 33.799,10.038C34.05,24.284 29.96,35.236 27.327,40.993C28.317,31.498 28.94,20.923 28.865,9.431C28.8,-0.604 28.211,-9.916 27.327,-18.393" style="fill:rgb(30,28,26);fill-rule:nonzero;"/> </g> <g transform="matrix(-2.04864,4.94927,4.94927,2.04864,1346,17173.2)"> <path d="M27.329,-41.21C29.894,-35.608 33.574,-25.662 33.802,-12.779C34.053,1.468 29.963,12.419 27.329,18.177C28.32,8.681 28.943,-1.896 28.868,-13.386C28.803,-23.421 28.214,-32.733 27.329,-41.21" style="fill:rgb(244,146,31);fill-rule:nonzero;"/> </g> <g transform="matrix(2.04892,-4.94915,-4.94915,-2.04892,1845.15,16010.9)"> <path d="M-38.752,-25.69C-35.122,-17.833 -29.911,-3.875 -29.589,14.25C-29.232,34.288 -35.024,49.733 -38.752,57.856C-37.35,44.49 -36.467,29.604 -36.573,13.438C-36.666,-0.678 -37.5,-13.773 -38.752,-25.69" style="fill:rgb(244,146,31);fill-rule:nonzero;"/> </g> <g transform="matrix(-2.48945,-4.74287,-4.74287,2.48945,1002.67,16180.9)"> <path d="M-40.751,-63.013C-27.125,-35.64 -25.145,-5.394 -33.024,21.974L-40.751,19.566C-33.485,-5.822 -35.327,-33.858 -47.918,-59.251L-40.751,-63.013Z" style="fill:rgb(149,193,61);fill-rule:nonzero;"/> </g> <g transform="matrix(-4.74287,2.48945,2.48945,4.74287,1078.17,17212)"> <path d="M17.86,-83.244C31.487,-55.871 33.466,-25.625 25.587,1.743L17.86,-0.665C25.126,-26.053 23.284,-54.089 10.693,-79.483L17.86,-83.244Z" style="fill:rgb(149,193,61);fill-rule:nonzero;"/> </g> <g transform="matrix(-5.11408,-1.59321,-1.59321,5.11408,757.341,16803)"> <path d="M-14.598,-81.063C-1.913,-55.565 1.596,-25.459 -6.871,3.924L-14.598,1.516C-6.794,-25.732 -10.04,-53.639 -21.765,-77.302L-14.598,-81.063Z" style="fill:rgb(250,177,46);fill-rule:nonzero;"/> </g> <g transform="matrix(4.74287,-2.48945,-2.48945,-4.74287,2133.66,16762.1)"> <path d="M-20.519,-4.402C-6.892,22.971 -4.913,53.216 -12.791,80.584L-20.519,78.177C-13.253,52.789 -15.095,24.753 -27.686,-0.641L-20.519,-4.402Z" style="fill:rgb(149,193,61);fill-rule:nonzero;"/> </g> <g transform="matrix(-1.59321,5.11408,5.11408,1.59321,1323.49,17195.4)"> <path d="M38.29,-55.108C50.975,-29.61 54.483,0.497 46.016,29.878L38.29,27.471C46.094,0.223 42.848,-27.684 31.123,-51.346L38.29,-55.108Z" style="fill:rgb(250,177,46);fill-rule:nonzero;"/> </g> <g transform="matrix(3.78762,3.78762,3.78762,-3.78762,1744.2,17127.7)"> <path d="M29.448,-3.699L37.543,-3.699C36.924,24.773 26.036,53.061 4.883,75.142L-0.84,69.418C18.735,48.92 28.832,22.701 29.448,-3.699" style="fill:rgb(250,177,46);fill-rule:nonzero;"/> </g> <g transform="matrix(2.4894,4.74289,4.74289,-2.4894,1452.57,17236.4)"> <path d="M38.091,-24.634C51.718,2.739 53.697,32.985 45.818,60.352L38.091,57.945C45.356,32.556 43.516,4.52 30.925,-20.873L38.091,-24.634Z" style="fill:rgb(149,193,61);fill-rule:nonzero;"/> </g> <g transform="matrix(5.35651,0,0,5.35651,1803.84,16251.6)"> <path d="M0,180.471L-66.981,113.49L27.743,113.49C27.186,139.461 16.732,162.995 0,180.471M-3.094,183.565C-20.57,200.297 -44.104,210.75 -70.076,211.308L-70.076,116.583L-3.094,183.565ZM-71.416,194.723C-71.699,194.727 -71.979,194.745 -72.263,194.745C-72.547,194.745 -72.827,194.727 -73.11,194.723L-73.11,113.348L-130.652,170.89C-131.056,170.494 -131.456,170.095 -131.852,169.691L-74.31,112.15L-155.685,112.15C-155.687,111.867 -155.706,111.586 -155.706,111.302C-155.706,111.018 -155.687,110.738 -155.685,110.454L-74.31,110.454L-131.851,52.912C-131.456,52.509 -131.056,52.11 -130.652,51.714L-73.11,109.256L-73.11,27.881C-72.827,27.878 -72.547,27.859 -72.263,27.859C-71.345,27.859 -70.436,27.899 -69.524,27.929L-69.524,101.348L-16.99,48.815C-15.504,50.131 -14.064,51.496 -12.675,52.912L-70.216,110.454L11.158,110.454C11.161,110.738 11.18,111.018 11.18,111.302C11.18,111.586 11.161,111.867 11.158,112.15L-70.216,112.15L-12.675,169.691C-13.07,170.095 -13.471,170.494 -13.874,170.891L-71.416,113.348L-71.416,194.723ZM-74.451,211.308C-100.422,210.75 -123.956,200.297 -141.433,183.565L-74.451,116.583L-74.451,211.308ZM-144.526,180.471C-161.258,162.995 -171.711,139.461 -172.269,113.49L-77.544,113.49L-144.526,180.471ZM-172.269,109.115C-171.711,83.143 -161.258,59.609 -144.526,42.133L-77.544,109.115L-172.269,109.115ZM-141.433,39.039C-123.956,22.306 -100.422,11.854 -74.451,11.296L-74.451,106.021L-141.433,39.039ZM-67.515,-38.968C-30.373,-38.171 3.283,-23.222 28.275,0.707L-67.515,96.497L-67.515,-38.968ZM0,42.133C16.732,59.609 27.186,83.143 27.743,109.115L-66.981,109.115L0,42.133ZM29.083,113.519L29.111,112.15L17.108,112.15C17.111,111.867 17.13,111.586 17.13,111.302C17.13,111.018 17.111,110.738 17.108,110.454L29.111,110.454L29.083,109.085C29.08,108.961 29.069,108.837 29.066,108.713L37.927,108.713C37.271,80.23 25.812,54.417 7.484,35.214L1.218,41.48C1.133,41.39 1.054,41.296 0.968,41.206L0.021,40.217L-8.468,48.705C-9.857,47.289 -11.292,45.919 -12.773,44.598L31.148,0.676L29.666,-0.744C3.384,-25.908 -31.113,-40.197 -67.471,-40.978L-69.524,-41.021L-69.524,21.978C-70.436,21.95 -71.345,21.909 -72.263,21.909C-72.547,21.909 -72.827,21.928 -73.11,21.93L-73.11,9.927L-74.479,9.956C-74.604,9.958 -74.727,9.97 -74.852,9.972L-74.852,1.111C-103.334,1.768 -129.147,13.226 -148.351,31.554L-142.084,37.82C-142.174,37.905 -142.269,37.985 -142.359,38.071L-143.348,39.018L-134.86,47.506C-135.264,47.902 -135.663,48.302 -136.059,48.705L-144.547,40.217L-145.493,41.206C-145.58,41.296 -145.659,41.39 -145.744,41.481L-152.011,35.214C-170.338,54.417 -181.797,80.23 -182.453,108.713L-173.593,108.713C-173.596,108.837 -173.606,108.961 -173.609,109.085L-173.638,110.454L-161.635,110.454C-161.638,110.738 -161.657,111.018 -161.657,111.302C-161.657,111.586 -161.638,111.867 -161.635,112.15L-173.638,112.15L-173.609,113.519C-173.606,113.643 -173.596,113.765 -173.593,113.889L-182.453,113.889C-181.797,142.372 -170.338,168.185 -152.011,187.388L-145.745,181.122C-145.659,181.212 -145.58,181.307 -145.493,181.397L-144.547,182.386L-136.059,173.899C-135.663,174.303 -135.264,174.702 -134.86,175.098L-143.348,183.586L-142.359,184.533C-142.27,184.619 -142.175,184.699 -142.085,184.783L-148.351,191.049C-129.147,209.376 -103.334,220.834 -74.852,221.492L-74.852,212.631C-74.727,212.634 -74.604,212.645 -74.479,212.648L-73.11,212.676L-73.11,200.674C-72.827,200.677 -72.547,200.696 -72.263,200.696C-71.979,200.696 -71.699,200.677 -71.416,200.674L-71.416,212.676L-70.047,212.648C-69.922,212.645 -69.799,212.634 -69.675,212.631L-69.675,221.492C-41.191,220.834 -15.379,209.376 3.824,191.049L-2.441,184.783C-2.352,184.699 -2.257,184.619 -2.168,184.533L-1.179,183.586L-9.666,175.098C-9.263,174.702 -8.863,174.302 -8.467,173.899L0.021,182.386L0.968,181.397C1.054,181.307 1.133,181.212 1.219,181.122L7.484,187.388C25.812,168.185 37.271,142.372 37.927,113.889L29.066,113.889C29.069,113.765 29.08,113.643 29.083,113.519" style="fill:rgb(30,28,26);fill-rule:nonzero;"/> </g> </g> </g> </g> </g> <defs> <linearGradient id="_Linear2" x1="0" y1="0" x2="1" y2="0" gradientUnits="userSpaceOnUse" gradientTransform="matrix(395.377,389.738,-556.584,276.856,22.9014,-48.0272)"><stop offset="0" style="stop-color:rgb(0,136,59);stop-opacity:1"/><stop offset="1" style="stop-color:rgb(0,50,13);stop-opacity:1"/></linearGradient> </defs> </svg>